<?xml version="1.0" standalone="no"?>
<!DOCTYPE svg PUBLIC "-//W3C//DTD SVG 1.1//EN" "http://www.w3.org/Graphics/SVG/1.1/DTD/svg11.dtd">
<svg width="100%" height="100%" viewBox="0 0 16 16" version="1.1" xmlns="http://www.w3.org/2000/svg" xmlns:xlink="http://www.w3.org/1999/xlink" xml:space="preserve" style="fill-rule:evenodd;clip-rule:evenodd;stroke-linejoin:round;stroke-miterlimit:1.41421;">
    <g transform="matrix(1,0,0,1,-0,-70)">
        <g id="Annotations" transform="matrix(1,0,0,1,-146,70)">
            <g transform="matrix(0.75,0,0,0.75,130.25,-14.25)">
                <path d="M35.055,20.336C35.11,20.343 35.163,20.351 35.216,20.369C35.391,20.43 35.536,20.563 35.611,20.732C35.641,20.801 35.655,20.871 35.664,20.945C35.83,24.96 35.667,28.982 35.667,33C35.664,33.074 35.655,33.146 35.631,33.216C35.57,33.391 35.437,33.536 35.268,33.611C35.199,33.641 35.129,33.655 35.055,33.664C31.04,33.83 27.018,33.667 23,33.667C22.926,33.664 22.854,33.655 22.784,33.631C22.609,33.57 22.464,33.437 22.389,33.268C22.359,33.199 22.345,33.129 22.336,33.055C22.17,29.04 22.333,25.018 22.333,21C22.336,20.926 22.345,20.854 22.369,20.784C22.43,20.609 22.563,20.464 22.732,20.389C22.801,20.359 22.871,20.345 22.945,20.336C26.978,20.169 31.022,20.169 35.055,20.336ZM23.667,21.667L23.667,32.333L34.333,32.333L34.333,21.667C30.778,21.667 27.222,21.667 23.667,21.667Z" style="fill:black;fill-rule:nonzero;"/>
            </g>
            <g transform="matrix(1.42857,0,0,1.42857,143.357,-105.5)">
                <path d="M8.55,76.65C8.729,76.654 8.908,76.667 9.086,76.694C9.461,76.752 9.827,76.865 10.169,77.03C10.642,77.258 11.067,77.584 11.411,77.981C11.654,78.262 11.856,78.577 12.01,78.916C12.349,79.665 12.437,80.519 12.262,81.322C12.185,81.675 12.057,82.017 11.885,82.335C11.693,82.687 11.446,83.01 11.156,83.286C10.82,83.607 10.426,83.866 9.998,84.047C9.541,84.241 9.046,84.343 8.55,84.35C8.067,84.356 7.584,84.271 7.133,84.1C6.712,83.94 6.321,83.705 5.981,83.411C5.678,83.148 5.416,82.839 5.208,82.496C5.013,82.175 4.865,81.825 4.771,81.462C4.562,80.649 4.626,79.774 4.953,79.002C5.098,78.659 5.293,78.338 5.53,78.051C5.864,77.647 6.28,77.311 6.748,77.072C7.246,76.816 7.793,76.678 8.351,76.653C8.418,76.651 8.484,76.65 8.55,76.65ZM8.459,77.35C8.001,77.359 7.549,77.461 7.135,77.661C6.748,77.847 6.4,78.114 6.118,78.439C5.919,78.669 5.754,78.927 5.628,79.204C5.351,79.817 5.279,80.516 5.422,81.173C5.485,81.462 5.589,81.741 5.73,82.001C5.887,82.289 6.089,82.553 6.327,82.78C6.602,83.042 6.925,83.254 7.275,83.402C7.649,83.561 8.053,83.645 8.459,83.65C8.854,83.655 9.249,83.586 9.619,83.445C9.963,83.315 10.283,83.122 10.561,82.882C10.809,82.667 11.023,82.413 11.194,82.132C11.367,81.848 11.494,81.536 11.569,81.211C11.711,80.597 11.668,79.933 11.432,79.347C11.318,79.063 11.167,78.796 10.978,78.556C10.712,78.218 10.378,77.935 10.001,77.73C9.587,77.506 9.131,77.381 8.662,77.354C8.595,77.351 8.527,77.35 8.459,77.35Z" style="fill:black;fill-rule:nonzero;"/>
            </g>
        </g>
    </g>
</svg>
