<?xml version="1.0" standalone="no"?>
<!DOCTYPE svg PUBLIC "-//W3C//DTD SVG 1.1//EN" "http://www.w3.org/Graphics/SVG/1.1/DTD/svg11.dtd">
<svg width="100%" height="100%" viewBox="0 0 16 16" version="1.1" xmlns="http://www.w3.org/2000/svg" xmlns:xlink="http://www.w3.org/1999/xlink" xml:space="preserve" style="fill-rule:evenodd;clip-rule:evenodd;stroke-linejoin:round;stroke-miterlimit:1.41421;">
    <g transform="matrix(1,0,0,1,-34,-104)">
        <g id="Brush" transform="matrix(1,0,0,1,-112,104)">
            <g transform="matrix(-1.15072,-0.0202812,0.0202812,-1.15072,202.413,137.847)">
                <path d="M42,118.434C41.88,118.433 41.762,118.428 41.643,118.414C41.383,118.385 41.127,118.323 40.881,118.232C40.694,118.164 40.513,118.078 40.34,117.978C40.194,117.894 40.054,117.799 39.921,117.695C39.197,117.126 38.665,116.25 38.672,115.31C38.674,115.04 38.723,114.776 38.823,114.524C39.017,114.031 39.355,113.6 39.719,113.221C39.98,112.948 40.264,112.698 40.561,112.466C41.052,112.082 41.581,111.751 42.134,111.464L42.139,111.462C42.142,111.319 42.142,111.319 42.146,111.176C42.152,111.016 42.152,111.017 42.16,110.856C42.187,110.396 42.227,109.937 42.289,109.48C42.36,108.958 42.462,108.438 42.655,107.946C42.816,107.536 43.039,107.149 43.345,106.83C43.637,106.525 43.998,106.295 44.395,106.152C44.716,106.037 45.055,105.978 45.395,105.959C45.712,105.942 46.029,105.959 46.341,106.014C47.175,106.161 47.969,106.568 48.544,107.194C48.685,107.348 48.813,107.514 48.924,107.691C49.054,107.899 49.161,108.12 49.242,108.351C49.349,108.656 49.411,108.975 49.429,109.297C49.455,109.77 49.395,110.251 49.235,110.698C49.044,111.228 48.712,111.691 48.301,112.072C47.845,112.495 47.307,112.819 46.758,113.106C46.416,113.285 46.069,113.46 45.71,113.604C45.682,113.708 45.658,113.814 45.634,113.919C45.547,114.33 45.487,114.745 45.413,115.159C45.396,115.243 45.379,115.327 45.36,115.41C45.274,115.763 45.159,116.107 45.002,116.434C44.702,117.057 44.251,117.615 43.657,117.978C43.497,118.076 43.329,118.159 43.154,118.226C42.867,118.337 42.568,118.397 42.262,118.425C42.174,118.43 42.087,118.433 42,118.434ZM42.132,117.562C42.356,117.548 42.576,117.51 42.789,117.435C42.915,117.39 43.038,117.334 43.154,117.267C43.253,117.209 43.348,117.144 43.438,117.072C44.053,116.58 44.386,115.824 44.545,115.07C44.609,114.741 44.656,114.408 44.716,114.077C44.761,113.844 44.809,113.612 44.87,113.383C44.909,113.237 44.937,113.074 45.051,112.964C45.084,112.933 45.12,112.91 45.16,112.888C45.271,112.84 45.385,112.799 45.497,112.752C45.834,112.606 46.164,112.44 46.488,112.266C46.902,112.043 47.309,111.795 47.661,111.48C47.96,111.212 48.214,110.893 48.371,110.522C48.487,110.248 48.547,109.953 48.562,109.656C48.581,109.266 48.524,108.873 48.373,108.512C48.244,108.202 48.05,107.921 47.811,107.686C47.191,107.075 46.305,106.78 45.442,106.827C44.967,106.853 44.49,106.983 44.119,107.293C44.001,107.393 43.895,107.508 43.803,107.633C43.501,108.043 43.341,108.545 43.241,109.039C43.16,109.44 43.113,109.848 43.076,110.255C43.03,110.743 43.003,111.234 43.01,111.725L43.008,111.766C43.003,111.808 42.996,111.847 42.981,111.886C42.946,111.979 42.881,112.049 42.8,112.103C42.686,112.165 42.568,112.218 42.453,112.278C41.725,112.663 41.035,113.136 40.449,113.718C40.271,113.895 40.102,114.082 39.954,114.284C39.844,114.433 39.744,114.59 39.667,114.758C39.621,114.859 39.583,114.964 39.562,115.074C39.49,115.464 39.596,115.875 39.782,116.218C40.109,116.825 40.702,117.289 41.364,117.476C41.551,117.529 41.741,117.556 41.935,117.565C42.001,117.566 42.066,117.565 42.132,117.562Z" style="fill:black;fill-rule:nonzero;"/>
            </g>
        </g>
    </g>
</svg>
