<?xml version="1.0" standalone="no"?>
<!DOCTYPE svg PUBLIC "-//W3C//DTD SVG 1.1//EN" "http://www.w3.org/Graphics/SVG/1.1/DTD/svg11.dtd">
<svg width="100%" height="100%" viewBox="0 0 16 16" version="1.1" xmlns="http://www.w3.org/2000/svg" xmlns:xlink="http://www.w3.org/1999/xlink" xml:space="preserve" style="fill-rule:evenodd;clip-rule:evenodd;stroke-linejoin:round;stroke-miterlimit:1.41421;">
    <g transform="matrix(1,0,0,1,-152,-0)">
        <g id="Cell_only" transform="matrix(1,0,0,1,-28,0)">
            <g transform="matrix(1.08467,0,0,1.07994,12.284,-37.3574)">
                <path d="M162.083,35.538C162.385,35.543 162.685,35.566 162.983,35.611C163.586,35.704 164.176,35.883 164.729,36.141C165.504,36.503 166.205,37.021 166.781,37.654C167.323,38.251 167.753,38.949 168.041,39.704C168.299,40.383 168.44,41.106 168.459,41.833C168.477,42.539 168.38,43.247 168.17,43.922C167.999,44.472 167.753,44.999 167.442,45.484C166.667,46.691 165.495,47.622 164.146,48.097C163.484,48.331 162.785,48.454 162.083,48.462C161.353,48.472 160.622,48.358 159.929,48.123C159.262,47.897 158.633,47.561 158.074,47.132C157.041,46.34 156.257,45.238 155.854,43.997C155.645,43.354 155.539,42.677 155.539,42C155.539,41.27 155.662,40.541 155.905,39.852C156.174,39.09 156.587,38.381 157.116,37.77C157.677,37.123 158.365,36.59 159.13,36.209C159.675,35.938 160.259,35.745 160.858,35.638C161.153,35.585 161.451,35.555 161.751,35.542C161.862,35.538 161.972,35.537 162.083,35.538ZM161.928,36.463C161.67,36.468 161.412,36.488 161.156,36.527C160.639,36.606 160.134,36.759 159.66,36.981C158.995,37.291 158.394,37.735 157.9,38.279C157.435,38.79 157.067,39.388 156.821,40.034C156.599,40.616 156.479,41.235 156.463,41.857C156.447,42.462 156.53,43.068 156.71,43.645C157.022,44.649 157.626,45.552 158.426,46.229C158.921,46.647 159.488,46.978 160.096,47.201C160.682,47.416 161.304,47.529 161.928,47.537C162.555,47.544 163.182,47.447 163.776,47.246C164.369,47.045 164.927,46.742 165.419,46.355C166.278,45.68 166.931,44.752 167.269,43.71C167.449,43.159 167.539,42.58 167.539,42C167.539,41.375 167.434,40.751 167.226,40.162C166.996,39.508 166.641,38.901 166.188,38.378C165.708,37.823 165.118,37.365 164.461,37.039C163.994,36.807 163.494,36.641 162.981,36.55C162.727,36.504 162.471,36.478 162.214,36.467C162.119,36.464 162.024,36.463 161.928,36.463Z" style="fill:black;fill-rule:nonzero;"/>
            </g>
            <g transform="matrix(1.26136,0,0,1.00733,-15.6034,-34.7983)">
                <path d="M162.368,43.392C162.44,43.402 162.51,43.432 162.58,43.451C162.635,43.464 162.689,43.475 162.744,43.484C162.829,43.496 162.914,43.504 163,43.504C163.05,43.504 163.099,43.499 163.148,43.501C163.173,43.505 163.173,43.505 163.198,43.51C163.272,43.532 163.338,43.572 163.394,43.639C163.542,43.818 163.555,44.12 163.421,44.317C163.389,44.365 163.349,44.405 163.305,44.434C163.194,44.509 163.063,44.499 162.94,44.496C162.699,44.49 162.459,44.446 162.227,44.364C162.203,44.355 162.203,44.355 162.18,44.343C162.103,44.299 162.039,44.234 161.995,44.142C161.883,43.911 161.945,43.601 162.13,43.461C162.18,43.423 162.235,43.402 162.294,43.392C162.319,43.39 162.343,43.39 162.368,43.392ZM165.029,41.431C165.071,41.437 165.111,41.447 165.15,41.467C165.181,41.483 165.21,41.504 165.236,41.529C165.316,41.604 165.372,41.716 165.389,41.84C165.399,41.914 165.398,41.992 165.396,42.067C165.393,42.156 165.387,42.245 165.375,42.333C165.367,42.398 165.356,42.462 165.343,42.526C165.33,42.59 165.315,42.652 165.298,42.714C165.274,42.795 165.247,42.875 165.217,42.953C165.158,43.101 165.095,43.245 164.972,43.319C164.927,43.346 164.878,43.362 164.829,43.367C164.623,43.385 164.435,43.194 164.407,42.938C164.397,42.843 164.411,42.752 164.44,42.664C164.465,42.602 164.494,42.545 164.518,42.48C164.56,42.361 164.59,42.237 164.6,42.107C164.605,42.033 164.601,41.96 164.603,41.887C164.606,41.856 164.606,41.857 164.61,41.825C164.64,41.671 164.718,41.54 164.835,41.473C164.873,41.452 164.913,41.44 164.955,41.432C164.98,41.43 165.004,41.429 165.029,41.431ZM161.156,40.762C161.214,40.767 161.27,40.783 161.323,40.817C161.458,40.903 161.544,41.085 161.539,41.275C161.537,41.327 161.529,41.379 161.515,41.427C161.499,41.482 161.477,41.532 161.459,41.586C161.446,41.63 161.435,41.675 161.425,41.72C161.405,41.824 161.394,41.929 161.397,42.036C161.398,42.096 161.406,42.154 161.409,42.214C161.408,42.245 161.408,42.245 161.406,42.276C161.395,42.381 161.363,42.477 161.306,42.556C161.278,42.595 161.245,42.627 161.209,42.653C161.054,42.764 160.852,42.729 160.728,42.568C160.682,42.508 160.648,42.434 160.63,42.354C160.61,42.262 160.607,42.162 160.604,42.067C160.602,41.978 160.604,41.888 160.611,41.799C160.626,41.603 160.663,41.409 160.721,41.225C160.747,41.141 160.774,41.053 160.815,40.978C160.862,40.892 160.93,40.826 161.009,40.791C161.04,40.777 161.073,40.769 161.106,40.764C161.131,40.762 161.13,40.762 161.156,40.762ZM163.06,39.504C163.348,39.515 163.637,39.57 163.91,39.689C163.933,39.7 163.933,39.7 163.956,39.713C164.023,39.758 164.079,39.819 164.119,39.901C164.225,40.122 164.175,40.418 164.005,40.566C163.964,40.601 163.918,40.627 163.869,40.641C163.812,40.658 163.754,40.656 163.696,40.643C163.672,40.636 163.673,40.636 163.648,40.626C163.647,40.626 163.652,40.628 163.651,40.628C163.601,40.607 163.55,40.588 163.499,40.572C163.335,40.523 163.169,40.496 163,40.496C162.916,40.496 162.833,40.51 162.749,40.51C162.724,40.508 162.725,40.508 162.7,40.504C162.617,40.484 162.542,40.44 162.482,40.364C162.33,40.172 162.33,39.853 162.483,39.662C162.537,39.596 162.604,39.55 162.678,39.529C162.725,39.516 162.774,39.514 162.822,39.51C162.881,39.506 162.941,39.502 163,39.504C163.02,39.503 163.04,39.504 163.06,39.504Z" style="fill:black;fill-rule:nonzero;"/>
            </g>
        </g>
    </g>
</svg>
