<?xml version="1.0" standalone="no"?>
<!DOCTYPE svg PUBLIC "-//W3C//DTD SVG 1.1//EN" "http://www.w3.org/Graphics/SVG/1.1/DTD/svg11.dtd">
<svg width="100%" height="100%" viewBox="0 0 16 16" version="1.1" xmlns="http://www.w3.org/2000/svg" xmlns:xlink="http://www.w3.org/1999/xlink" xml:space="preserve" style="fill-rule:evenodd;clip-rule:evenodd;stroke-linejoin:round;stroke-miterlimit:1.41421;">
    <g transform="matrix(1,0,0,1,-152,-34)">
        <g id="Cell_nuclei" transform="matrix(1,0,0,1,-94,34)">
            <g transform="matrix(1.08467,0,0,1.07994,78.292,-37.3698)">
                <path d="M162.083,35.538C162.385,35.543 162.685,35.566 162.983,35.611C163.586,35.704 164.176,35.882 164.729,36.141C165.504,36.503 166.205,37.021 166.781,37.654C167.323,38.251 167.753,38.949 168.041,39.704C168.299,40.383 168.44,41.106 168.459,41.833C168.477,42.539 168.38,43.247 168.17,43.922C167.79,45.143 167.042,46.236 166.048,47.036C165.479,47.494 164.834,47.855 164.146,48.097C163.484,48.331 162.785,48.454 162.083,48.462C161.353,48.472 160.622,48.358 159.929,48.123C159.238,47.889 158.587,47.536 158.013,47.084C157.01,46.296 156.249,45.213 155.854,43.997C155.645,43.354 155.539,42.677 155.539,42C155.539,41.27 155.662,40.541 155.905,39.852C156.174,39.09 156.587,38.381 157.116,37.77C157.677,37.123 158.365,36.59 159.13,36.209C159.675,35.938 160.259,35.745 160.858,35.638C161.153,35.585 161.451,35.555 161.751,35.542C161.862,35.538 161.972,35.537 162.083,35.538ZM161.928,36.463C161.67,36.468 161.412,36.488 161.156,36.527C160.639,36.606 160.134,36.759 159.66,36.981C158.995,37.291 158.394,37.735 157.9,38.279C157.435,38.79 157.067,39.388 156.821,40.034C156.599,40.616 156.479,41.235 156.463,41.857C156.447,42.462 156.53,43.068 156.71,43.645C156.85,44.095 157.048,44.526 157.298,44.926C157.961,45.988 158.982,46.808 160.16,47.224C160.727,47.424 161.327,47.529 161.928,47.537C162.555,47.544 163.182,47.447 163.776,47.246C164.348,47.052 164.887,46.764 165.367,46.396C166.251,45.717 166.924,44.773 167.269,43.71C167.449,43.159 167.539,42.58 167.539,42C167.539,41.375 167.434,40.751 167.226,40.162C166.996,39.508 166.641,38.901 166.188,38.378C165.708,37.823 165.118,37.365 164.461,37.039C163.994,36.807 163.494,36.641 162.981,36.55C162.727,36.504 162.471,36.478 162.214,36.467C162.119,36.464 162.024,36.463 161.928,36.463Z" style="fill:black;fill-rule:nonzero;"/>
            </g>
            <g transform="matrix(1.75,-3.1415e-17,-2.50884e-17,1.5,-29.25,-55.5)">
                <circle cx="163" cy="42" r="2" style="fill:black;"/>
            </g>
        </g>
    </g>
</svg>
