<?xml version="1.0" standalone="no"?>
<!DOCTYPE svg PUBLIC "-//W3C//DTD SVG 1.1//EN" "http://www.w3.org/Graphics/SVG/1.1/DTD/svg11.dtd">
<svg width="100%" height="100%" viewBox="0 0 16 16" version="1.1" xmlns="http://www.w3.org/2000/svg" xmlns:xlink="http://www.w3.org/1999/xlink" xml:space="preserve" style="fill-rule:evenodd;clip-rule:evenodd;stroke-linejoin:round;stroke-miterlimit:1.41421;">
    <g transform="matrix(1,0,0,1,-152,-107)">
        <g id="Cog" transform="matrix(1,0,0,1,-68,107)">
            <g transform="matrix(2.00009,0,0,2.00671,-100.508,-221.267)">
                <path d="M163.321,111.385C163.37,111.369 163.42,111.355 163.47,111.341C163.511,111.33 163.551,111.32 163.592,111.311L163.622,111.305L163.686,110.969L163.908,110.768C163.965,110.762 164.022,110.758 164.078,110.755C164.236,110.748 164.393,110.751 164.55,110.764L164.592,110.768L164.814,110.969L164.878,111.305C164.929,111.316 164.979,111.328 165.03,111.341C165.07,111.352 165.11,111.364 165.151,111.376L165.179,111.385L165.402,111.127L165.696,111.064C165.748,111.087 165.799,111.112 165.85,111.138C165.989,111.211 166.124,111.292 166.254,111.381L166.288,111.405L166.379,111.69L166.267,112.013C166.305,112.048 166.343,112.084 166.38,112.121C166.41,112.151 166.439,112.181 166.467,112.211L166.488,112.234L166.809,112.122L167.096,112.213C167.129,112.26 167.161,112.307 167.192,112.354C167.276,112.487 167.352,112.625 167.42,112.767L167.438,112.805L167.374,113.097L167.115,113.32C167.131,113.37 167.146,113.42 167.16,113.471C167.17,113.511 167.18,113.552 167.19,113.593L167.196,113.623L167.531,113.687L167.733,113.909C167.739,113.965 167.743,114.022 167.746,114.078C167.753,114.236 167.75,114.393 167.737,114.55L167.733,114.591L167.531,114.813L167.196,114.877C167.185,114.928 167.173,114.979 167.16,115.029C167.149,115.07 167.137,115.11 167.125,115.15L167.115,115.18L167.374,115.403L167.437,115.695C167.414,115.747 167.389,115.798 167.363,115.849C167.29,115.988 167.21,116.123 167.12,116.253L167.096,116.287L166.809,116.378L166.488,116.266C166.453,116.305 166.417,116.342 166.38,116.379C166.351,116.409 166.32,116.438 166.29,116.466L166.267,116.487L166.379,116.81L166.288,117.095C166.241,117.128 166.194,117.16 166.147,117.191C166.014,117.275 165.876,117.351 165.734,117.419L165.696,117.436L165.402,117.373L165.179,117.115C165.13,117.131 165.08,117.145 165.03,117.159C164.989,117.17 164.949,117.18 164.908,117.189L164.878,117.195L164.814,117.531L164.592,117.732C164.535,117.738 164.478,117.742 164.422,117.745C164.264,117.752 164.107,117.749 163.95,117.736L163.908,117.732L163.686,117.531L163.622,117.195C163.571,117.184 163.521,117.172 163.47,117.159C163.43,117.148 163.39,117.136 163.349,117.124L163.321,117.115L163.098,117.373L162.804,117.436C162.752,117.413 162.701,117.388 162.65,117.362C162.511,117.289 162.376,117.208 162.246,117.119L162.212,117.095L162.121,116.81L162.233,116.487C162.195,116.452 162.157,116.416 162.12,116.379C162.09,116.349 162.061,116.319 162.033,116.289L162.012,116.266L161.691,116.378L161.404,116.287C161.371,116.24 161.339,116.193 161.308,116.146C161.224,116.013 161.148,115.875 161.08,115.733L161.062,115.695L161.126,115.403L161.385,115.18C161.369,115.13 161.354,115.08 161.34,115.029C161.33,114.989 161.32,114.948 161.31,114.907L161.304,114.877L160.969,114.813L160.767,114.591C160.761,114.535 160.757,114.478 160.754,114.422C160.747,114.264 160.75,114.107 160.763,113.95L160.767,113.909L160.969,113.687L161.304,113.623C161.315,113.572 161.327,113.521 161.34,113.471C161.351,113.43 161.363,113.39 161.375,113.35L161.385,113.32L161.126,113.097L161.062,112.805C161.086,112.753 161.111,112.702 161.137,112.651C161.209,112.512 161.29,112.377 161.38,112.247L161.404,112.213L161.691,112.122L162.012,112.234C162.047,112.195 162.083,112.158 162.12,112.121C162.149,112.091 162.18,112.062 162.21,112.034L162.233,112.013L162.121,111.69L162.212,111.405C162.259,111.372 162.306,111.34 162.353,111.309C162.486,111.225 162.624,111.149 162.766,111.081L162.804,111.064L163.098,111.127C163.172,111.213 163.247,111.299 163.321,111.385ZM162.309,115.846C162.422,115.982 162.547,116.104 162.683,116.215L162.762,116.49L162.656,116.792C162.698,116.818 162.74,116.843 162.782,116.867C162.814,116.885 162.814,116.884 162.845,116.902L163.054,116.66L163.333,116.59C163.377,116.607 163.421,116.623 163.466,116.638C163.6,116.681 163.736,116.713 163.875,116.735L164.081,116.935L164.141,117.249C164.19,117.25 164.238,117.251 164.287,117.251C164.323,117.25 164.323,117.25 164.359,117.249L164.419,116.935L164.625,116.735C164.672,116.728 164.718,116.719 164.764,116.71C164.902,116.68 165.036,116.64 165.167,116.59L165.446,116.66L165.655,116.902C165.697,116.879 165.74,116.855 165.781,116.83C165.813,116.811 165.813,116.812 165.844,116.792L165.738,116.49L165.817,116.215C165.853,116.185 165.889,116.155 165.925,116.123C166.029,116.029 166.125,115.927 166.214,115.818L166.491,115.739L166.792,115.844C166.817,115.803 166.842,115.761 166.866,115.719C166.884,115.687 166.884,115.687 166.901,115.654L166.659,115.445L166.589,115.168C166.606,115.124 166.622,115.079 166.637,115.035C166.68,114.901 166.712,114.764 166.734,114.625L166.934,114.42L167.248,114.36C167.249,114.311 167.25,114.262 167.25,114.213C167.249,114.177 167.249,114.177 167.248,114.14L166.934,114.08L166.734,113.875C166.727,113.828 166.719,113.782 166.709,113.735C166.679,113.598 166.639,113.464 166.589,113.332L166.659,113.055L166.901,112.846C166.878,112.803 166.854,112.76 166.829,112.718C166.811,112.687 166.811,112.687 166.792,112.656L166.491,112.761L166.214,112.682C166.184,112.645 166.154,112.609 166.122,112.574C166.028,112.47 165.926,112.374 165.817,112.285L165.738,112.01L165.844,111.708C165.802,111.682 165.76,111.657 165.718,111.633C165.686,111.615 165.686,111.616 165.655,111.598L165.446,111.84L165.167,111.91C165.123,111.893 165.079,111.877 165.034,111.862C164.9,111.819 164.764,111.787 164.625,111.765L164.419,111.565L164.359,111.251C164.31,111.25 164.262,111.249 164.213,111.249C164.177,111.25 164.177,111.25 164.141,111.251L164.081,111.565L163.875,111.765C163.828,111.772 163.782,111.781 163.736,111.79C163.598,111.82 163.464,111.86 163.333,111.91L163.054,111.84L162.845,111.598C162.803,111.621 162.76,111.645 162.719,111.67C162.687,111.689 162.687,111.688 162.656,111.708L162.762,112.01L162.683,112.285C162.647,112.315 162.611,112.345 162.575,112.377C162.471,112.471 162.375,112.573 162.286,112.682L162.009,112.761L161.708,112.656C161.683,112.697 161.658,112.739 161.634,112.781C161.616,112.813 161.616,112.813 161.599,112.846L161.841,113.055L161.911,113.332C161.894,113.376 161.878,113.421 161.863,113.465C161.82,113.599 161.788,113.736 161.766,113.875L161.566,114.08L161.252,114.14C161.251,114.189 161.25,114.238 161.25,114.287C161.251,114.323 161.251,114.323 161.252,114.36L161.566,114.42L161.766,114.625C161.773,114.672 161.781,114.718 161.791,114.765C161.821,114.902 161.861,115.036 161.911,115.168L161.841,115.445L161.599,115.654C161.622,115.697 161.646,115.74 161.671,115.783C161.689,115.813 161.689,115.813 161.708,115.844L162.009,115.739L162.286,115.818C162.294,115.827 162.302,115.837 162.309,115.846ZM164.273,113.351C164.408,113.356 164.54,113.388 164.66,113.45C164.769,113.506 164.867,113.584 164.945,113.678C165.121,113.892 165.189,114.183 165.127,114.453C165.109,114.531 165.08,114.607 165.041,114.678C164.993,114.767 164.93,114.847 164.855,114.915C164.775,114.988 164.681,115.047 164.58,115.087C164.475,115.128 164.363,115.149 164.25,115.149C164.137,115.149 164.025,115.128 163.92,115.087C163.819,115.047 163.725,114.988 163.645,114.915C163.57,114.847 163.507,114.767 163.459,114.678C163.333,114.447 163.316,114.165 163.412,113.921C163.447,113.833 163.495,113.751 163.555,113.678C163.629,113.589 163.719,113.515 163.821,113.46C163.939,113.395 164.069,113.361 164.204,113.352C164.227,113.351 164.25,113.351 164.273,113.351ZM164.24,113.849C164.18,113.852 164.122,113.865 164.068,113.893C164.026,113.915 163.987,113.945 163.954,113.98C163.924,114.014 163.899,114.052 163.881,114.094C163.821,114.236 163.85,114.405 163.954,114.52C163.989,114.558 164.031,114.589 164.077,114.612C164.125,114.634 164.177,114.648 164.229,114.65C164.28,114.653 164.33,114.646 164.378,114.63C164.424,114.614 164.467,114.59 164.504,114.56C164.559,114.514 164.601,114.455 164.626,114.388C164.671,114.264 164.652,114.117 164.571,114.011C164.541,113.973 164.506,113.939 164.465,113.912C164.415,113.88 164.359,113.861 164.301,113.852C164.281,113.85 164.26,113.849 164.24,113.849Z" style="fill:black;fill-rule:nonzero;"/>
            </g>
        </g>
    </g>
</svg>
