<?xml version="1.0" standalone="no"?>
<!DOCTYPE svg PUBLIC "-//W3C//DTD SVG 1.1//EN" "http://www.w3.org/Graphics/SVG/1.1/DTD/svg11.dtd">
<svg width="100%" height="100%" viewBox="0 0 16 16" version="1.1" xmlns="http://www.w3.org/2000/svg" xmlns:xlink="http://www.w3.org/1999/xlink" xml:space="preserve" style="fill-rule:evenodd;clip-rule:evenodd;stroke-linejoin:round;stroke-miterlimit:1.41421;">
    <g transform="matrix(1,0,0,1,-114,-0)">
        <g id="Contrast" transform="matrix(1,0,0,1,-18,1.77636e-15)">
            <g transform="matrix(1,0,0,1,18,-1.77636e-15)">
                <path d="M122.09,1.021C122.417,1.027 122.743,1.052 123.066,1.101C123.72,1.2 124.36,1.393 124.96,1.673C125.8,2.064 126.561,2.623 127.186,3.307C127.774,3.951 128.241,4.705 128.552,5.52C128.832,6.254 128.986,7.035 129.006,7.82C129.025,8.583 128.92,9.347 128.692,10.075C128.507,10.67 128.24,11.239 127.902,11.762C127.063,13.066 125.791,14.071 124.327,14.585C123.609,14.837 122.851,14.969 122.09,14.979C121.298,14.989 120.505,14.866 119.754,14.613C119.03,14.369 118.348,14.005 117.741,13.542C116.622,12.687 115.771,11.497 115.334,10.157C115.107,9.462 114.992,8.731 114.992,8C114.992,7.212 115.126,6.424 115.389,5.681C115.681,4.857 116.129,4.091 116.703,3.432C117.311,2.734 118.057,2.157 118.887,1.746C119.478,1.453 120.111,1.245 120.761,1.129C121.081,1.072 121.405,1.04 121.73,1.025C121.85,1.022 121.97,1.02 122.09,1.021ZM122,2.021C121.974,2.021 121.948,2.021 121.922,2.021C121.642,2.026 121.362,2.047 121.085,2.089C120.524,2.175 119.976,2.34 119.462,2.579C118.741,2.915 118.089,3.394 117.553,3.981C117.049,4.533 116.649,5.179 116.382,5.877C116.142,6.505 116.011,7.174 115.994,7.846C115.977,8.499 116.067,9.153 116.262,9.777C116.601,10.861 117.255,11.836 118.123,12.567C118.66,13.019 119.275,13.376 119.935,13.616C120.571,13.849 121.245,13.971 121.922,13.979C121.948,13.979 121.974,13.98 122,13.98L122,2.021Z" style="fill:black;"/>
            </g>
        </g>
    </g>
</svg>
