<?xml version="1.0" standalone="no"?>
<!DOCTYPE svg PUBLIC "-//W3C//DTD SVG 1.1//EN" "http://www.w3.org/Graphics/SVG/1.1/DTD/svg11.dtd">
<svg width="100%" height="100%" viewBox="0 0 16 16" version="1.1" xmlns="http://www.w3.org/2000/svg" xmlns:xlink="http://www.w3.org/1999/xlink" xml:space="preserve" style="fill-rule:evenodd;clip-rule:evenodd;stroke-linejoin:round;stroke-miterlimit:1.41421;">
    <g transform="matrix(1,0,0,1,-0,-34)">
        <g id="Detections" transform="matrix(1,0,0,1,-146,34)">
            <g transform="matrix(0.5,0,0,0.623113,129.5,-79.0046)">
                <path d="M49.158,142.013L46.216,145.934L50.174,149.892L49.629,150.802L35.586,150.802L35,150.332L35,144.863L35.113,144.605L38.362,141.355L38.773,141.198L48.583,141.198C48.775,141.469 48.966,141.741 49.158,142.013ZM39.48,142.802L37,145.282L37,149.198L46.915,149.198L44.023,146.306L43.981,145.802L46.231,142.802C43.981,142.802 41.73,142.802 39.48,142.802Z" style="fill:black;fill-rule:nonzero;"/>
            </g>
            <g transform="matrix(0.714286,0,0,0.714286,151.929,-49.5)">
                <path d="M8.608,76.301C8.786,76.308 8.963,76.321 9.139,76.348C9.582,76.416 10.013,76.556 10.412,76.76C11.224,77.176 11.889,77.858 12.285,78.679C12.465,79.052 12.589,79.452 12.652,79.861C12.716,80.284 12.716,80.716 12.652,81.139C12.589,81.548 12.465,81.948 12.285,82.321C12.066,82.776 11.763,83.191 11.397,83.54C11.031,83.889 10.601,84.172 10.135,84.369C9.619,84.588 9.06,84.7 8.5,84.7C7.94,84.7 7.381,84.588 6.865,84.369C6.399,84.172 5.969,83.889 5.603,83.54C5.237,83.191 4.934,82.776 4.715,82.321C4.535,81.948 4.411,81.548 4.348,81.139C4.284,80.716 4.284,80.284 4.348,79.861C4.411,79.452 4.535,79.052 4.715,78.679C5.111,77.858 5.776,77.176 6.588,76.76C6.987,76.556 7.418,76.416 7.861,76.348C8.037,76.321 8.214,76.308 8.392,76.301C8.5,76.3 8.499,76.3 8.608,76.301ZM8.427,77.701C8.009,77.717 7.601,77.814 7.226,78.006C6.477,78.39 5.926,79.11 5.757,79.935C5.695,80.238 5.684,80.551 5.723,80.857C5.757,81.131 5.833,81.4 5.947,81.651C6.086,81.959 6.282,82.241 6.521,82.479C6.759,82.718 7.041,82.914 7.349,83.053C7.687,83.206 8.056,83.29 8.427,83.299C8.802,83.308 9.177,83.243 9.526,83.106C9.84,82.982 10.132,82.8 10.382,82.572C10.632,82.345 10.84,82.074 10.994,81.774C11.119,81.529 11.208,81.266 11.256,80.996C11.311,80.692 11.314,80.379 11.268,80.073C11.136,79.215 10.595,78.452 9.833,78.038C9.465,77.838 9.061,77.73 8.645,77.704C8.572,77.701 8.5,77.7 8.427,77.701Z" style="fill:black;fill-rule:nonzero;"/>
            </g>
            <g transform="matrix(0.5,0,0,0.395428,136,-6.70142)">
                <path d="M35.068,19.503C35.16,19.518 35.248,19.54 35.335,19.587C35.594,19.725 35.808,20.024 35.917,20.402C35.963,20.562 35.986,20.726 35.998,20.898C36.09,24.964 36.09,29.036 35.998,33.102C35.986,33.274 35.963,33.438 35.917,33.598C35.808,33.976 35.594,34.275 35.335,34.413C35.248,34.46 35.16,34.482 35.068,34.497C31.025,34.704 26.975,34.704 22.932,34.497C22.84,34.482 22.752,34.46 22.665,34.413C22.406,34.275 22.192,33.976 22.083,33.598C22.037,33.438 22.014,33.274 22.002,33.102C21.91,29.036 21.91,24.964 22.002,20.898C22.014,20.726 22.037,20.562 22.083,20.402C22.192,20.024 22.406,19.725 22.665,19.587C22.752,19.54 22.84,19.518 22.932,19.503C26.975,19.296 31.025,19.296 35.068,19.503ZM24,22.5L24,31.5L34,31.5L34,22.5C30.667,22.5 27.333,22.5 24,22.5Z" style="fill:black;fill-rule:nonzero;"/>
            </g>
        </g>
    </g>
</svg>
