<?xml version="1.0" standalone="no"?>
<!DOCTYPE svg PUBLIC "-//W3C//DTD SVG 1.1//EN" "http://www.w3.org/Graphics/SVG/1.1/DTD/svg11.dtd">
<svg width="100%" height="100%" viewBox="0 0 16 16" version="1.1" xmlns="http://www.w3.org/2000/svg" xmlns:xlink="http://www.w3.org/1999/xlink" xml:space="preserve" style="fill-rule:evenodd;clip-rule:evenodd;stroke-linejoin:round;stroke-miterlimit:1.41421;">
    <g transform="matrix(1,0,0,1,-75,-0)">
        <g id="Ellipse" transform="matrix(1,0,0,1,9,0)">
            <g transform="matrix(1.17911,0,0,1.00417,39.2162,-0.512506)">
                <path d="M29.576,2.503C29.873,2.508 30.17,2.532 30.465,2.581C31.098,2.686 31.718,2.897 32.299,3.212C32.949,3.566 33.549,4.051 34.048,4.656C34.454,5.148 34.792,5.718 35.03,6.344C35.233,6.878 35.362,7.45 35.406,8.033C35.444,8.522 35.422,9.018 35.342,9.5C35.276,9.898 35.17,10.286 35.03,10.656C34.907,10.979 34.757,11.288 34.586,11.578C34.437,11.829 34.272,12.067 34.093,12.289C33.942,12.476 33.781,12.653 33.613,12.818C32.488,13.915 31.03,14.479 29.576,14.497C28.115,14.516 26.641,13.987 25.491,12.916C25.301,12.739 25.121,12.548 24.952,12.344C24.771,12.125 24.603,11.889 24.452,11.64C24.277,11.352 24.124,11.046 23.997,10.725C23.852,10.358 23.742,9.972 23.671,9.575C23.585,9.095 23.557,8.6 23.588,8.11C23.625,7.526 23.747,6.951 23.944,6.413C24.175,5.784 24.506,5.209 24.907,4.711C25.399,4.101 25.993,3.608 26.639,3.247C27.215,2.925 27.832,2.706 28.463,2.594C28.732,2.546 29.002,2.518 29.274,2.506C29.374,2.503 29.475,2.502 29.576,2.503ZM29.434,3.498C28.615,3.514 27.802,3.711 27.057,4.116C26.502,4.418 25.988,4.832 25.561,5.349C25.224,5.757 24.942,6.23 24.745,6.75C24.58,7.184 24.474,7.648 24.438,8.121C24.408,8.518 24.426,8.919 24.491,9.31C24.544,9.634 24.63,9.949 24.745,10.25C24.846,10.516 24.969,10.771 25.111,11.01C25.235,11.22 25.373,11.419 25.523,11.604C26.525,12.849 27.99,13.483 29.434,13.502C30.921,13.52 32.443,12.888 33.477,11.604C33.627,11.419 33.765,11.22 33.889,11.01C34.031,10.771 34.154,10.516 34.255,10.25C34.37,9.949 34.456,9.634 34.509,9.31C34.574,8.919 34.592,8.518 34.562,8.121C34.526,7.648 34.42,7.184 34.255,6.75C34.058,6.23 33.776,5.757 33.439,5.349C33.012,4.832 32.498,4.418 31.943,4.116C31.218,3.722 30.429,3.525 29.633,3.5C29.566,3.498 29.5,3.498 29.434,3.498Z" style="fill:black;fill-rule:nonzero;"/>
            </g>
        </g>
    </g>
</svg>
