<?xml version="1.0" standalone="no"?>
<!DOCTYPE svg PUBLIC "-//W3C//DTD SVG 1.1//EN" "http://www.w3.org/Graphics/SVG/1.1/DTD/svg11.dtd">
<svg width="100%" height="100%" viewBox="0 0 16 16" version="1.1" xmlns="http://www.w3.org/2000/svg" xmlns:xlink="http://www.w3.org/1999/xlink" xml:space="preserve" style="fill-rule:evenodd;clip-rule:evenodd;stroke-linejoin:round;stroke-miterlimit:1.41421;">
    <g transform="matrix(1,0,0,1,-114,-139)">
        <g id="Extract_image" transform="matrix(1,0,0,1,-66,139)">
            <g transform="matrix(0.583333,0,0,0.502001,94.6021,-12.424)">
                <circle cx="162" cy="42" r="6" style="fill:black;"/>
            </g>
            <g transform="matrix(1,0,0,1,65.9859,-139.019)">
                <path d="M126.651,140.068C126.701,140.075 126.747,140.084 126.793,140.104C126.931,140.161 127.038,140.278 127.081,140.42C127.095,140.469 127.1,140.516 127.102,140.566L127.102,142L128.504,142L128.553,142.002C128.602,142.01 128.648,142.019 128.695,142.038C128.817,142.088 128.915,142.187 128.966,142.309C128.985,142.355 128.994,142.402 129.001,142.451C129.181,146.12 129.004,149.799 129.004,153.472C129.001,153.522 128.997,153.569 128.982,153.617C128.939,153.76 128.832,153.877 128.695,153.934C128.648,153.954 128.602,153.963 128.553,153.97C124.881,154.15 121.201,153.972 117.525,153.972C117.475,153.97 117.428,153.965 117.38,153.951C117.237,153.908 117.12,153.801 117.063,153.664C117.037,153.602 117.028,153.539 117.025,153.472L117.025,152.059L115.531,152.077L115.481,152.075C115.432,152.068 115.385,152.06 115.338,152.041C115.215,151.991 115.114,151.892 115.063,151.77C115.044,151.723 115.035,151.676 115.027,151.627C114.845,147.944 115.025,144.253 115.025,140.566C115.027,140.516 115.032,140.469 115.046,140.42C115.089,140.278 115.196,140.161 115.333,140.104C115.38,140.084 115.426,140.075 115.476,140.068C119.196,139.885 122.93,139.885 126.651,140.068ZM117.65,142.016C117.699,142.031 117.745,142.048 117.789,142.076C117.89,142.138 117.966,142.237 118.002,142.35C118.017,142.4 118.022,142.448 118.025,142.5L118.025,152.972L128.004,152.972L128.004,143L126.602,143L126.553,142.998C126.504,142.99 126.457,142.981 126.411,142.962C126.274,142.905 126.167,142.787 126.124,142.645C126.109,142.597 126.105,142.55 126.102,142.5L126.102,141.066L116.025,141.066L116.025,151.071L117.025,151.059L117.025,142.5C117.028,142.431 117.038,142.367 117.065,142.303C117.126,142.162 117.251,142.054 117.399,142.016C117.45,142.003 117.498,142.001 117.55,142.001C117.6,142.006 117.6,142.006 117.65,142.016Z" style="fill:black;fill-rule:nonzero;"/>
            </g>
            <g transform="matrix(1,0,0,1,66,-139)">
                <path d="M126.645,142.002C126.759,142.016 126.864,142.058 126.948,142.139C127.127,142.311 127.152,142.598 127.004,142.797C126.97,142.843 126.929,142.883 126.882,142.914C126.81,142.963 126.73,142.987 126.645,142.998C123.607,143.127 120.565,143 117.525,143C117.395,142.994 117.274,142.952 117.179,142.861C117.138,142.822 117.104,142.776 117.078,142.725C116.966,142.503 117.039,142.225 117.245,142.086C117.317,142.037 117.397,142.013 117.482,142.002C120.534,141.872 123.593,141.872 126.645,142.002Z" style="fill:black;fill-rule:nonzero;"/>
            </g>
        </g>
    </g>
</svg>
