<?xml version="1.0" standalone="no"?>
<!DOCTYPE svg PUBLIC "-//W3C//DTD SVG 1.1//EN" "http://www.w3.org/Graphics/SVG/1.1/DTD/svg11.dtd">
<svg width="100%" height="100%" viewBox="0 0 16 16" version="1.1" xmlns="http://www.w3.org/2000/svg" xmlns:xlink="http://www.w3.org/1999/xlink" xml:space="preserve" style="fill-rule:evenodd;clip-rule:evenodd;stroke-linejoin:round;stroke-miterlimit:1.41421;">
    <g transform="matrix(1,0,0,1,-0,-139)">
        <g id="Grid" transform="matrix(1,0,0,1,-180,139)">
            <g transform="matrix(1,0,0,1,180.5,-139)">
                <path d="M3.071,140.505C3.119,140.514 3.163,140.525 3.208,140.545C3.324,140.598 3.417,140.696 3.464,140.814C3.482,140.859 3.491,140.905 3.498,140.952C3.689,144.964 3.5,148.984 3.5,153C3.496,153.081 3.482,153.157 3.444,153.229C3.415,153.286 3.375,153.336 3.327,153.378C3.142,153.539 2.858,153.539 2.673,153.378C2.573,153.291 2.521,153.176 2.502,153.048C2.311,149.036 2.5,145.016 2.5,141C2.503,140.935 2.512,140.875 2.536,140.814C2.589,140.681 2.7,140.575 2.836,140.527C2.882,140.512 2.928,140.505 2.976,140.501C3.024,140.501 3.023,140.501 3.071,140.505Z" style="fill:black;fill-rule:nonzero;"/>
            </g>
            <g transform="matrix(1,0,0,1,183.5,-139)">
                <path d="M3.071,140.505C3.119,140.514 3.163,140.525 3.208,140.545C3.324,140.598 3.417,140.696 3.464,140.814C3.482,140.859 3.491,140.905 3.498,140.952C3.689,144.964 3.5,148.984 3.5,153C3.494,153.13 3.453,153.249 3.362,153.345C3.192,153.523 2.91,153.55 2.71,153.407C2.658,153.37 2.614,153.324 2.579,153.27C2.535,153.202 2.514,153.128 2.502,153.048C2.311,149.036 2.5,145.016 2.5,141C2.503,140.935 2.512,140.875 2.536,140.814C2.589,140.681 2.7,140.575 2.836,140.527C2.882,140.512 2.928,140.505 2.976,140.501C3.024,140.501 3.024,140.501 3.071,140.505Z" style="fill:black;fill-rule:nonzero;"/>
            </g>
            <g transform="matrix(1,0,0,1,186.5,-139)">
                <path d="M3.071,140.505C3.119,140.514 3.163,140.525 3.208,140.545C3.324,140.598 3.417,140.696 3.464,140.814C3.482,140.859 3.491,140.905 3.498,140.952C3.689,144.964 3.5,148.984 3.5,153C3.494,153.13 3.453,153.249 3.362,153.345C3.192,153.523 2.91,153.55 2.71,153.407C2.658,153.37 2.614,153.324 2.579,153.27C2.535,153.202 2.514,153.128 2.502,153.048C2.311,149.036 2.5,145.016 2.5,141C2.503,140.935 2.512,140.875 2.536,140.814C2.589,140.681 2.7,140.575 2.836,140.527C2.882,140.512 2.928,140.505 2.976,140.501C3.024,140.501 3.023,140.501 3.071,140.505Z" style="fill:black;fill-rule:nonzero;"/>
            </g>
            <g transform="matrix(1,0,0,1,189.5,-139)">
                <path d="M3.071,140.505C3.119,140.514 3.163,140.525 3.208,140.545C3.324,140.598 3.417,140.696 3.464,140.814C3.482,140.859 3.491,140.905 3.498,140.952C3.689,144.964 3.5,148.984 3.5,153C3.494,153.13 3.453,153.249 3.362,153.345C3.192,153.523 2.91,153.55 2.71,153.407C2.658,153.37 2.614,153.324 2.579,153.27C2.535,153.202 2.514,153.128 2.502,153.048C2.311,149.036 2.5,145.016 2.5,141C2.503,140.935 2.512,140.875 2.536,140.814C2.589,140.681 2.7,140.575 2.836,140.527C2.882,140.512 2.928,140.505 2.976,140.501C3.024,140.501 3.023,140.501 3.071,140.505Z" style="fill:black;fill-rule:nonzero;"/>
            </g>
            <g transform="matrix(2.83277e-16,1,-1,2.83277e-16,335,0.5)">
                <path d="M2.502,140.952C2.514,140.872 2.535,140.798 2.579,140.73C2.614,140.676 2.658,140.63 2.71,140.593C2.896,140.46 3.155,140.473 3.327,140.622C3.427,140.709 3.479,140.824 3.498,140.952C3.689,144.964 3.5,148.984 3.5,153C3.496,153.081 3.482,153.157 3.444,153.229C3.415,153.286 3.375,153.336 3.327,153.378C3.142,153.539 2.858,153.539 2.673,153.378C2.573,153.291 2.521,153.176 2.502,153.048C2.31,149.02 2.31,144.98 2.502,140.952Z" style="fill:black;fill-rule:nonzero;"/>
            </g>
            <g transform="matrix(2.83277e-16,1,-1,2.83277e-16,335,3.5)">
                <path d="M2.502,140.952C2.514,140.872 2.535,140.798 2.579,140.73C2.614,140.676 2.658,140.63 2.71,140.593C2.896,140.46 3.155,140.473 3.327,140.622C3.427,140.709 3.479,140.824 3.498,140.952C3.689,144.964 3.5,148.984 3.5,153C3.496,153.081 3.482,153.157 3.444,153.229C3.415,153.286 3.375,153.336 3.327,153.378C3.142,153.539 2.858,153.539 2.673,153.378C2.573,153.291 2.521,153.176 2.502,153.048C2.31,149.02 2.31,144.98 2.502,140.952Z" style="fill:black;fill-rule:nonzero;"/>
            </g>
            <g transform="matrix(2.83277e-16,1,-1,2.83277e-16,335,6.5)">
                <path d="M2.502,140.952C2.514,140.872 2.535,140.798 2.579,140.73C2.614,140.676 2.658,140.63 2.71,140.593C2.896,140.46 3.155,140.473 3.327,140.622C3.427,140.709 3.479,140.824 3.498,140.952C3.689,144.964 3.5,148.984 3.5,153C3.496,153.081 3.482,153.157 3.444,153.229C3.415,153.286 3.375,153.336 3.327,153.378C3.142,153.539 2.858,153.539 2.673,153.378C2.573,153.291 2.521,153.176 2.502,153.048C2.31,149.02 2.31,144.98 2.502,140.952Z" style="fill:black;fill-rule:nonzero;"/>
            </g>
            <g transform="matrix(2.83277e-16,1,-1,2.83277e-16,335,9.5)">
                <path d="M2.502,140.952C2.514,140.872 2.535,140.798 2.579,140.73C2.614,140.676 2.658,140.63 2.71,140.593C2.896,140.46 3.155,140.473 3.327,140.622C3.427,140.709 3.479,140.824 3.498,140.952C3.689,144.964 3.5,148.984 3.5,153C3.494,153.13 3.453,153.249 3.362,153.345C3.318,153.391 3.265,153.428 3.208,153.455C2.984,153.557 2.712,153.477 2.579,153.27C2.535,153.202 2.514,153.128 2.502,153.048C2.31,149.02 2.31,144.98 2.502,140.952Z" style="fill:black;fill-rule:nonzero;"/>
            </g>
        </g>
    </g>
</svg>
