<?xml version="1.0" standalone="no"?>
<!DOCTYPE svg PUBLIC "-//W3C//DTD SVG 1.1//EN" "http://www.w3.org/Graphics/SVG/1.1/DTD/svg11.dtd">
<svg width="100%" height="100%" viewBox="0 0 16 16" version="1.1" xmlns="http://www.w3.org/2000/svg" xmlns:xlink="http://www.w3.org/1999/xlink" xml:space="preserve" style="fill-rule:evenodd;clip-rule:evenodd;stroke-linejoin:round;stroke-miterlimit:1.41421;">
    <g transform="matrix(1,0,0,1,-75,-70)">
        <g id="Line" transform="matrix(1,0,0,1,-33,70)">
            <g transform="matrix(1.20162,0,0,1.19983,81.1718,-47.1928)">
                <path d="M34.055,40.587C34.121,40.599 34.182,40.619 34.238,40.658C34.382,40.758 34.448,40.944 34.4,41.113C34.382,41.179 34.348,41.233 34.304,41.284C34.261,41.327 34.215,41.367 34.171,41.409C33.988,41.586 33.807,41.765 33.626,41.943C33.07,42.495 32.515,43.049 31.961,43.602C29.402,46.162 26.848,48.728 24.295,51.294L24.266,51.321C24.212,51.361 24.156,51.392 24.089,51.407C24.038,51.418 23.984,51.42 23.932,51.411C23.745,51.38 23.599,51.22 23.585,51.031C23.577,50.921 23.614,50.822 23.679,50.735C24.182,50.179 24.735,49.671 25.263,49.139C25.796,48.604 26.329,48.069 26.861,47.534C28.083,46.308 29.305,45.082 30.528,43.857C31.44,42.945 32.352,42.032 33.27,41.125C33.408,40.989 33.546,40.853 33.687,40.719C33.75,40.663 33.815,40.617 33.898,40.596C33.932,40.587 33.941,40.588 33.976,40.584C34.016,40.584 34.016,40.584 34.055,40.587ZM34.212,41.359L34.177,41.377L34.217,41.358L34.242,41.339C34.232,41.346 34.222,41.352 34.212,41.359Z" style="fill:black;fill-rule:nonzero;"/>
            </g>
        </g>
    </g>
</svg>
