<?xml version="1.0" standalone="no"?>
<!DOCTYPE svg PUBLIC "-//W3C//DTD SVG 1.1//EN" "http://www.w3.org/Graphics/SVG/1.1/DTD/svg11.dtd">
<svg width="100%" height="100%" viewBox="0 0 16 16" version="1.1" xmlns="http://www.w3.org/2000/svg" xmlns:xlink="http://www.w3.org/1999/xlink" xml:space="preserve" style="fill-rule:evenodd;clip-rule:evenodd;stroke-linejoin:round;stroke-miterlimit:1.41421;">
    <g transform="matrix(1,0,0,1,-34,-34)">
        <g id="Location" transform="matrix(1,0,0,1,-74,34)">
            <g transform="matrix(0.94086,-1.72757e-18,-1.81889e-18,0.809061,104.294,-10.6021)">
                <path d="M7.114,23.288L4.222,26.576L5.446,26.576L7.558,24.032L8.686,26.576L9.85,26.576L8.266,23.372L10.93,20.372L9.694,20.372L7.846,22.628L6.91,20.372L5.734,20.372L7.114,23.288Z" style="fill:black;fill-rule:nonzero;"/>
                <path d="M11.242,25.244L10.954,26.576L11.626,26.576C11.586,26.712 11.546,26.844 11.506,26.972C11.466,27.1 11.414,27.218 11.35,27.326C11.286,27.434 11.204,27.526 11.104,27.602C11.004,27.678 10.874,27.728 10.714,27.752L10.594,28.328C11.01,28.296 11.332,28.178 11.56,27.974C11.788,27.77 11.964,27.522 12.088,27.23C12.212,26.938 12.304,26.616 12.364,26.264C12.424,25.912 12.494,25.572 12.574,25.244L11.242,25.244Z" style="fill:black;fill-rule:nonzero;"/>
                <path d="M16.066,27.62L20.17,20.372L19.054,20.372L16.45,25.304L16.426,25.304L15.706,20.372L14.614,20.372L15.706,26.576L15.082,27.596C14.962,27.796 14.83,27.958 14.686,28.082C14.542,28.206 14.354,28.268 14.122,28.268C14.042,28.268 13.946,28.252 13.834,28.22C13.722,28.188 13.626,28.148 13.546,28.1L13.366,28.928C13.462,28.976 13.574,29.014 13.702,29.042C13.83,29.07 13.954,29.084 14.074,29.084C14.33,29.084 14.554,29.046 14.746,28.97C14.938,28.894 15.11,28.79 15.262,28.658C15.414,28.526 15.554,28.37 15.682,28.19C15.81,28.01 15.938,27.82 16.066,27.62Z" style="fill:black;fill-rule:nonzero;"/>
            </g>
        </g>
    </g>
</svg>
