<?xml version="1.0" standalone="no"?>
<!DOCTYPE svg PUBLIC "-//W3C//DTD SVG 1.1//EN" "http://www.w3.org/Graphics/SVG/1.1/DTD/svg11.dtd">
<svg width="100%" height="100%" viewBox="0 0 16 16" version="1.1" xmlns="http://www.w3.org/2000/svg" xmlns:xlink="http://www.w3.org/1999/xlink" xml:space="preserve" style="fill-rule:evenodd;clip-rule:evenodd;stroke-linejoin:round;stroke-miterlimit:1.41421;">
    <g transform="matrix(1,0,0,1,-114,-107)">
        <g id="Measure" transform="matrix(1,0,0,1,-32,107)">
            <g transform="matrix(0.706528,-0.707685,0.661556,0.660474,-7.9221,18.0292)">
                <path d="M124.5,123L124,123.535L119,123.535L118.5,123L118.5,107L119,106.465L124,106.465L124.5,107C124.5,112.333 124.5,117.667 124.5,123ZM119.5,107.535L119.5,122.465L123.5,122.465L123.5,107.535C122.167,107.535 120.833,107.535 119.5,107.535Z" style="fill:black;fill-rule:nonzero;"/>
            </g>
            <g transform="matrix(0.680715,-0.68183,0.707685,0.706528,-10.4517,9.2075)">
                <path d="M123.476,119.653C123.528,119.706 123.569,119.769 123.593,119.839C123.678,120.077 123.559,120.346 123.322,120.453C123.257,120.482 123.187,120.497 123.115,120.5C122.727,120.504 122.336,120.529 121.95,120.498C121.874,120.49 121.801,120.468 121.735,120.43C121.523,120.308 121.428,120.051 121.513,119.827C121.535,119.77 121.568,119.717 121.609,119.671C121.654,119.622 121.708,119.582 121.768,119.553C121.837,119.52 121.911,119.503 121.987,119.5C122.375,119.496 122.766,119.471 123.153,119.502C123.255,119.513 123.349,119.55 123.429,119.612C123.445,119.625 123.461,119.638 123.476,119.653Z" style="fill:black;fill-rule:nonzero;"/>
            </g>
            <g transform="matrix(0.680715,-0.68183,0.707685,0.706528,-10.4517,9.2075)">
                <path d="M123.476,116.653C123.525,116.703 123.564,116.762 123.589,116.827C123.679,117.063 123.568,117.335 123.334,117.447C123.265,117.48 123.191,117.497 123.115,117.5C122.727,117.504 122.336,117.529 121.95,117.498C121.874,117.49 121.801,117.468 121.735,117.43C121.523,117.308 121.428,117.051 121.513,116.827C121.535,116.77 121.568,116.717 121.609,116.671C121.654,116.622 121.708,116.582 121.768,116.553C121.837,116.52 121.911,116.503 121.987,116.5C122.375,116.496 122.766,116.471 123.153,116.502C123.255,116.513 123.349,116.55 123.429,116.612C123.445,116.625 123.461,116.638 123.476,116.653Z" style="fill:black;fill-rule:nonzero;"/>
            </g>
            <g transform="matrix(0.926443,-0.92796,0.707685,0.706528,-40.4172,39.2298)">
                <path d="M123.383,113.662C123.42,113.716 123.448,113.777 123.465,113.845C123.521,114.074 123.442,114.33 123.28,114.442C123.228,114.478 123.171,114.497 123.113,114.5C122.729,114.507 122.34,114.547 121.957,114.497C121.902,114.488 121.85,114.465 121.803,114.428C121.763,114.396 121.727,114.354 121.698,114.305C121.669,114.256 121.647,114.2 121.634,114.141C121.584,113.915 121.664,113.667 121.822,113.558C121.874,113.522 121.931,113.503 121.989,113.5C122.373,113.493 122.762,113.453 123.146,113.503C123.223,113.516 123.292,113.557 123.352,113.622C123.363,113.635 123.373,113.648 123.383,113.662Z" style="fill:black;fill-rule:nonzero;"/>
            </g>
            <g transform="matrix(0.680715,-0.68183,0.707685,0.706528,-10.4634,9.25423)">
                <path d="M123.377,110.657C123.43,110.711 123.47,110.775 123.494,110.845C123.573,111.082 123.455,111.346 123.222,111.452C123.156,111.482 123.085,111.497 123.012,111.5C122.658,111.504 122.295,111.533 121.94,111.497C121.868,111.488 121.798,111.466 121.735,111.43C121.68,111.398 121.631,111.357 121.591,111.308C121.554,111.262 121.525,111.21 121.506,111.155C121.431,110.931 121.533,110.679 121.746,110.564C121.809,110.53 121.879,110.509 121.952,110.502C122.32,110.473 122.693,110.466 123.06,110.503C123.17,110.517 123.27,110.561 123.352,110.632C123.361,110.64 123.369,110.648 123.377,110.657Z" style="fill:black;fill-rule:nonzero;"/>
            </g>
        </g>
    </g>
</svg>
