<?xml version="1.0" standalone="no"?>
<!DOCTYPE svg PUBLIC "-//W3C//DTD SVG 1.1//EN" "http://www.w3.org/Graphics/SVG/1.1/DTD/svg11.dtd">
<svg width="100%" height="100%" viewBox="0 0 16 17" version="1.1" xmlns="http://www.w3.org/2000/svg" xmlns:xlink="http://www.w3.org/1999/xlink" xml:space="preserve" style="fill-rule:evenodd;clip-rule:evenodd;stroke-linejoin:round;stroke-miterlimit:1.41421;">
    <g transform="matrix(1,0,0,1,-152,-69)">
        <g id="Nuclei_only" transform="matrix(1,0,0,1,-160,70)">
            <g transform="matrix(1.08467,0,0,1.07994,144.282,-37.3574)">
                <path d="M160.607,47.363C160.722,47.385 160.836,47.415 160.951,47.438C161.042,47.455 161.133,47.47 161.225,47.483C161.314,47.495 161.403,47.505 161.493,47.514L161.539,47.521C161.616,47.54 161.686,47.569 161.747,47.622C161.783,47.652 161.814,47.688 161.839,47.727C161.959,47.918 161.921,48.176 161.752,48.324C161.666,48.399 161.564,48.431 161.452,48.438C161.387,48.435 161.324,48.428 161.259,48.421C160.98,48.387 160.703,48.339 160.429,48.27L160.385,48.256C160.296,48.219 160.221,48.168 160.165,48.089C160.045,47.919 160.055,47.682 160.189,47.522C160.219,47.486 160.254,47.455 160.294,47.43C160.362,47.387 160.435,47.367 160.514,47.359C160.561,47.358 160.56,47.358 160.607,47.363ZM164.228,47.138C164.306,47.153 164.378,47.178 164.442,47.227C164.622,47.363 164.677,47.617 164.571,47.816C164.525,47.902 164.456,47.962 164.373,48.01C164.323,48.032 164.272,48.051 164.22,48.071C163.946,48.169 163.667,48.25 163.383,48.314L163.337,48.322C163.258,48.328 163.182,48.321 163.108,48.291C162.9,48.205 162.782,47.974 162.834,47.754C162.845,47.708 162.863,47.665 162.887,47.624C162.945,47.527 163.033,47.464 163.137,47.423C163.263,47.388 163.39,47.362 163.516,47.327C163.679,47.279 163.84,47.226 163.999,47.165L164.043,47.15C164.089,47.14 164.088,47.14 164.135,47.135C164.182,47.134 164.182,47.134 164.228,47.138ZM158.148,46.1C158.195,46.107 158.24,46.116 158.284,46.135C158.322,46.151 158.33,46.158 158.365,46.18C158.456,46.25 158.543,46.325 158.633,46.396C158.781,46.507 158.932,46.614 159.089,46.711L159.128,46.737C159.188,46.789 159.238,46.846 159.271,46.92C159.289,46.963 159.301,47.008 159.306,47.055C159.331,47.28 159.184,47.494 158.967,47.553C158.857,47.582 158.751,47.566 158.648,47.522C158.603,47.498 158.562,47.472 158.519,47.444C158.27,47.282 158.03,47.107 157.804,46.913L157.77,46.881C157.718,46.821 157.678,46.757 157.658,46.679C157.609,46.493 157.683,46.292 157.839,46.182C157.905,46.136 157.977,46.113 158.055,46.101C158.102,46.098 158.102,46.098 158.148,46.1ZM166.47,45.584C166.533,45.593 166.591,45.607 166.648,45.637C166.816,45.728 166.912,45.919 166.886,46.109C166.875,46.189 166.843,46.257 166.798,46.324C166.759,46.371 166.717,46.415 166.675,46.459C166.476,46.665 166.267,46.862 166.043,47.04L166.005,47.067C165.922,47.115 165.835,47.144 165.739,47.14C165.531,47.132 165.35,46.979 165.306,46.775C165.296,46.73 165.293,46.682 165.298,46.635C165.306,46.542 165.343,46.452 165.404,46.38C165.439,46.338 165.481,46.306 165.523,46.271C165.574,46.229 165.625,46.186 165.675,46.142C165.741,46.082 165.805,46.022 165.869,45.96C165.945,45.886 166.019,45.809 166.091,45.731L166.124,45.698C166.157,45.672 166.164,45.665 166.2,45.644C166.256,45.612 166.314,45.596 166.376,45.585C166.423,45.582 166.423,45.582 166.47,45.584ZM156.545,43.887C156.654,43.909 156.751,43.956 156.825,44.043C156.852,44.074 156.857,44.084 156.879,44.119C156.934,44.231 156.982,44.347 157.036,44.459C157.116,44.617 157.202,44.771 157.295,44.921L157.317,44.962C157.361,45.066 157.378,45.172 157.349,45.282C157.292,45.501 157.078,45.649 156.855,45.625C156.808,45.621 156.763,45.608 156.72,45.59C156.646,45.558 156.589,45.508 156.537,45.447C156.501,45.394 156.469,45.34 156.436,45.285C156.293,45.04 156.165,44.789 156.053,44.529L156.037,44.485C156.021,44.423 156.011,44.363 156.018,44.299C156.033,44.142 156.131,44 156.272,43.93C156.33,43.901 156.389,43.889 156.452,43.883C156.498,43.883 156.498,43.883 156.545,43.887ZM167.832,43.186C167.895,43.197 167.952,43.214 168.007,43.247C168.129,43.32 168.212,43.448 168.229,43.589C168.235,43.637 168.231,43.682 168.225,43.729C168.209,43.794 168.19,43.858 168.17,43.922C168.085,44.189 167.986,44.451 167.868,44.706L167.847,44.747C167.785,44.841 167.705,44.913 167.598,44.95C167.385,45.022 167.144,44.925 167.041,44.725C167.019,44.683 167.004,44.638 166.996,44.592C166.982,44.513 166.992,44.438 167.014,44.361C167.059,44.249 167.11,44.14 167.155,44.029C167.22,43.86 167.278,43.689 167.329,43.515L167.344,43.471C167.362,43.433 167.365,43.422 167.388,43.388C167.44,43.309 167.516,43.248 167.603,43.214C167.647,43.196 167.692,43.189 167.739,43.183C167.786,43.182 167.785,43.182 167.832,43.186ZM156.061,41.172C156.108,41.179 156.152,41.189 156.196,41.208C156.311,41.258 156.402,41.356 156.445,41.474C156.461,41.519 156.467,41.564 156.472,41.612C156.471,41.741 156.462,41.87 156.461,42C156.462,42.171 156.468,42.342 156.485,42.513L156.487,42.56C156.482,42.639 156.467,42.714 156.427,42.784C156.404,42.825 156.375,42.862 156.341,42.894C156.177,43.049 155.918,43.061 155.741,42.921C155.652,42.851 155.601,42.756 155.574,42.648C155.566,42.597 155.562,42.549 155.558,42.497C155.537,42.2 155.534,41.903 155.551,41.606L155.556,41.559C155.566,41.512 155.577,41.468 155.599,41.425C155.648,41.327 155.731,41.248 155.832,41.205C155.876,41.187 155.921,41.178 155.968,41.171C156.015,41.169 156.014,41.169 156.061,41.172ZM167.93,40.433C167.971,40.438 167.982,40.437 168.022,40.448C168.127,40.478 168.22,40.546 168.281,40.637C168.308,40.677 168.325,40.719 168.34,40.764C168.354,40.821 168.364,40.878 168.374,40.936C168.419,41.222 168.449,41.51 168.458,41.799L168.457,41.846C168.447,41.926 168.427,41.999 168.384,42.066C168.261,42.256 168.012,42.329 167.807,42.236C167.765,42.217 167.725,42.191 167.69,42.16C167.606,42.084 167.561,41.986 167.54,41.876C167.53,41.752 167.527,41.628 167.517,41.504C167.5,41.328 167.477,41.153 167.445,40.979L167.439,40.933C167.437,40.885 167.438,40.84 167.448,40.793C167.479,40.654 167.575,40.535 167.703,40.475C167.746,40.455 167.79,40.444 167.837,40.436C167.884,40.432 167.883,40.432 167.93,40.433ZM156.839,38.536C156.902,38.544 156.961,38.557 157.018,38.587C157.187,38.675 157.286,38.865 157.263,39.055C157.255,39.119 157.232,39.175 157.203,39.231C157.155,39.313 157.11,39.397 157.067,39.481C156.981,39.65 156.903,39.822 156.835,39.998L156.815,40.041C156.776,40.11 156.729,40.17 156.662,40.215C156.623,40.241 156.581,40.261 156.536,40.274C156.32,40.338 156.083,40.232 155.988,40.027C155.94,39.924 155.936,39.817 155.961,39.707C155.978,39.656 155.997,39.607 156.017,39.557C156.131,39.284 156.259,39.018 156.408,38.763L156.433,38.724C156.493,38.65 156.564,38.591 156.655,38.56C156.695,38.546 156.705,38.546 156.746,38.538C156.793,38.535 156.793,38.535 156.839,38.536ZM166.834,37.919C166.912,37.932 166.984,37.955 167.05,38.002C167.084,38.026 167.09,38.034 167.12,38.063C167.156,38.106 167.189,38.15 167.222,38.195C167.393,38.433 167.551,38.679 167.689,38.937L167.71,38.979C167.747,39.085 167.757,39.192 167.722,39.301C167.707,39.345 167.686,39.388 167.658,39.426C167.517,39.624 167.239,39.677 167.035,39.546C166.967,39.502 166.919,39.444 166.878,39.376C166.833,39.293 166.786,39.212 166.737,39.131C166.638,38.969 166.531,38.811 166.417,38.66L166.39,38.621C166.36,38.565 166.336,38.509 166.327,38.446C166.3,38.256 166.396,38.064 166.563,37.973C166.619,37.942 166.678,37.928 166.741,37.918C166.787,37.917 166.787,37.916 166.834,37.919ZM158.746,36.537C158.824,36.551 158.896,36.575 158.961,36.623C159.128,36.745 159.194,36.973 159.118,37.167C159.088,37.242 159.04,37.301 158.982,37.355C158.885,37.426 158.783,37.492 158.686,37.564C158.544,37.672 158.405,37.784 158.273,37.906L158.237,37.935C158.171,37.98 158.103,38.012 158.023,38.023C157.977,38.029 157.929,38.028 157.883,38.02C157.645,37.979 157.475,37.75 157.504,37.509C157.517,37.396 157.572,37.303 157.65,37.223C157.729,37.151 157.81,37.081 157.892,37.013C158.052,36.882 158.218,36.758 158.389,36.641L158.434,36.611C158.47,36.59 158.478,36.583 158.517,36.567C158.561,36.549 158.605,36.541 158.652,36.535C158.699,36.534 158.699,36.534 158.746,36.537ZM164.697,36.164C164.746,36.169 164.788,36.178 164.834,36.193C164.894,36.22 164.951,36.25 165.009,36.28C165.257,36.413 165.495,36.559 165.725,36.72L165.762,36.749C165.819,36.804 165.866,36.864 165.893,36.94C165.91,36.984 165.919,37.03 165.921,37.077C165.932,37.303 165.773,37.508 165.553,37.553C165.441,37.576 165.336,37.553 165.236,37.504C165.132,37.438 165.032,37.366 164.928,37.3C164.777,37.207 164.622,37.12 164.463,37.04L164.422,37.017C164.357,36.97 164.303,36.918 164.264,36.847C164.157,36.648 164.212,36.394 164.391,36.257C164.455,36.208 164.526,36.183 164.604,36.168C164.651,36.163 164.651,36.163 164.697,36.164ZM162.083,35.538C162.387,35.543 162.691,35.565 162.991,35.613L163.036,35.622C163.112,35.647 163.18,35.68 163.238,35.736C163.412,35.905 163.425,36.19 163.267,36.373C163.236,36.409 163.2,36.44 163.16,36.464C163.064,36.524 162.957,36.539 162.846,36.527C162.753,36.512 162.66,36.502 162.567,36.492C162.377,36.474 162.188,36.464 161.997,36.463L161.95,36.46C161.91,36.454 161.899,36.454 161.859,36.441C161.776,36.414 161.704,36.364 161.647,36.297L161.631,36.322C161.58,36.383 161.524,36.434 161.451,36.467C161.413,36.484 161.402,36.486 161.362,36.497C161.248,36.517 161.133,36.53 161.019,36.55C160.838,36.583 160.659,36.625 160.481,36.674L160.436,36.684C160.357,36.694 160.281,36.691 160.205,36.664C160.161,36.649 160.12,36.627 160.082,36.598C159.902,36.463 159.846,36.209 159.952,36.01C160.005,35.909 160.089,35.842 160.191,35.796C160.256,35.775 160.321,35.758 160.387,35.741C160.657,35.673 160.93,35.619 161.206,35.586L161.253,35.582C161.294,35.584 161.305,35.582 161.346,35.59C161.453,35.61 161.542,35.667 161.614,35.748L161.637,35.714C161.7,35.642 161.772,35.586 161.865,35.557C161.905,35.545 161.915,35.545 161.956,35.539C162.02,35.536 162.019,35.537 162.083,35.538Z" style="fill:black;fill-rule:nonzero;"/>
            </g>
            <g transform="matrix(1.75,-3.1415e-17,-2.50884e-17,1.5,36.75,-55)">
                <circle cx="163" cy="42" r="2" style="fill:black;"/>
            </g>
        </g>
    </g>
</svg>
