<?xml version="1.0" standalone="no"?>
<!DOCTYPE svg PUBLIC "-//W3C//DTD SVG 1.1//EN" "http://www.w3.org/Graphics/SVG/1.1/DTD/svg11.dtd">
<svg width="100%" height="100%" viewBox="0 0 16 16" version="1.1" xmlns="http://www.w3.org/2000/svg" xmlns:xlink="http://www.w3.org/1999/xlink" xml:space="preserve" style="fill-rule:evenodd;clip-rule:evenodd;stroke-linejoin:round;stroke-miterlimit:1.41421;">
    <g transform="matrix(1,0,0,1,-34,-0)">
        <g id="Overview" transform="matrix(1,0,0,1,34,1.77636e-15)">
            <g transform="matrix(1.18296,-1.26836e-18,-1.15859e-18,1.08531,-0.862733,-0.613101)">
                <path d="M13.444,14.367L12.599,14.37L12.592,11.605L13.437,11.603C13.44,12.524 13.442,13.446 13.444,14.367ZM13.435,10.681L12.59,10.684L12.583,7.92L13.428,7.917C13.431,8.839 13.433,9.76 13.435,10.681ZM13.426,6.996L12.581,6.998L12.574,4.234L13.419,4.232C13.421,5.153 13.424,6.074 13.426,6.996ZM13.031,1.488C13.073,1.495 13.112,1.503 13.152,1.521C13.268,1.573 13.358,1.681 13.395,1.812C13.407,1.856 13.411,1.9 13.413,1.946L13.417,3.31L12.571,3.313L12.569,2.409L11.707,2.41L11.706,1.489C12.148,1.488 12.59,1.466 13.031,1.488ZM4.099,2.426L1.563,2.431L1.562,1.51L4.098,1.505C4.098,1.812 4.099,2.119 4.099,2.426ZM7.481,2.419L4.945,2.424L4.943,1.503L7.479,1.498C7.48,1.805 7.48,2.112 7.481,2.419ZM10.862,2.412L8.326,2.417L8.324,1.496L10.86,1.491C10.861,1.798 10.861,2.105 10.862,2.412Z" style="fill:black;fill-rule:nonzero;"/>
            </g>
            <g transform="matrix(1.14286,1.27768e-18,1.40387e-18,1.25,-0.571429,-1)">
                <rect x="4" y="4" width="7" height="4" style="fill:black;"/>
            </g>
        </g>
    </g>
</svg>
