<?xml version="1.0" standalone="no"?>
<!DOCTYPE svg PUBLIC "-//W3C//DTD SVG 1.1//EN" "http://www.w3.org/Graphics/SVG/1.1/DTD/svg11.dtd">
<svg width="100%" height="100%" viewBox="0 0 16 16" version="1.1" xmlns="http://www.w3.org/2000/svg" xmlns:xlink="http://www.w3.org/1999/xlink" xml:space="preserve" style="fill-rule:evenodd;clip-rule:evenodd;stroke-linejoin:round;stroke-miterlimit:1.41421;">
    <g transform="matrix(1,0,0,1,-75,-107)">
        <g id="Points" transform="matrix(1,0,0,1,-33,107)">
            <g transform="matrix(2.5,0,0,2.5,43.5,-145.5)">
                <path d="M29.031,58.8C29.082,58.802 29.132,58.806 29.182,58.814C29.309,58.833 29.432,58.873 29.546,58.931C29.778,59.05 29.968,59.245 30.081,59.48C30.133,59.586 30.168,59.701 30.186,59.818C30.205,59.938 30.205,60.062 30.186,60.182C30.168,60.299 30.133,60.414 30.081,60.52C30.019,60.65 29.932,60.769 29.828,60.868C29.723,60.968 29.6,61.049 29.467,61.106C29.32,61.168 29.16,61.2 29,61.2C28.84,61.2 28.68,61.168 28.533,61.106C28.4,61.049 28.277,60.968 28.172,60.868C28.068,60.769 27.981,60.65 27.919,60.52C27.867,60.414 27.832,60.299 27.814,60.182C27.795,60.062 27.795,59.938 27.814,59.818C27.832,59.701 27.867,59.586 27.919,59.48C28.032,59.245 28.222,59.05 28.454,58.931C28.568,58.873 28.691,58.833 28.818,58.814C28.868,58.806 28.918,58.802 28.969,58.8C29,58.8 29,58.8 29.031,58.8ZM28.979,59.2C28.86,59.205 28.743,59.233 28.636,59.287C28.416,59.4 28.256,59.614 28.213,59.858C28.197,59.945 28.196,60.035 28.209,60.122C28.221,60.2 28.245,60.276 28.279,60.347C28.321,60.433 28.378,60.512 28.448,60.579C28.518,60.646 28.6,60.7 28.689,60.737C28.787,60.779 28.893,60.8 29,60.8C29.107,60.8 29.213,60.779 29.311,60.737C29.4,60.7 29.482,60.646 29.552,60.579C29.622,60.512 29.679,60.433 29.721,60.347C29.755,60.276 29.779,60.2 29.791,60.122C29.804,60.035 29.803,59.945 29.787,59.858C29.745,59.621 29.593,59.412 29.381,59.297C29.276,59.239 29.16,59.209 29.041,59.201C29.021,59.2 29,59.2 28.979,59.2Z" style="fill:black;fill-rule:nonzero;"/>
            </g>
            <g transform="matrix(2.5,0,0,2.5,39.5,-138.5)">
                <path d="M29.031,58.8C29.082,58.802 29.132,58.806 29.182,58.814C29.309,58.833 29.432,58.873 29.546,58.931C29.778,59.05 29.968,59.245 30.081,59.48C30.133,59.586 30.168,59.701 30.186,59.818C30.205,59.938 30.205,60.062 30.186,60.182C30.168,60.299 30.133,60.414 30.081,60.52C30.019,60.65 29.932,60.769 29.828,60.868C29.723,60.968 29.6,61.049 29.467,61.106C29.32,61.168 29.16,61.2 29,61.2C28.84,61.2 28.68,61.168 28.533,61.106C28.4,61.049 28.277,60.968 28.172,60.868C28.068,60.769 27.981,60.65 27.919,60.52C27.867,60.414 27.832,60.299 27.814,60.182C27.795,60.062 27.795,59.938 27.814,59.818C27.832,59.701 27.867,59.586 27.919,59.48C28.032,59.245 28.222,59.05 28.454,58.931C28.568,58.873 28.691,58.833 28.818,58.814C28.868,58.806 28.918,58.802 28.969,58.8C29,58.8 29,58.8 29.031,58.8ZM28.979,59.2C28.86,59.205 28.743,59.233 28.636,59.287C28.416,59.4 28.256,59.614 28.213,59.858C28.197,59.945 28.196,60.035 28.209,60.122C28.221,60.2 28.245,60.276 28.279,60.347C28.321,60.433 28.378,60.512 28.448,60.579C28.518,60.646 28.6,60.7 28.689,60.737C28.787,60.779 28.893,60.8 29,60.8C29.107,60.8 29.213,60.779 29.311,60.737C29.4,60.7 29.482,60.646 29.552,60.579C29.622,60.512 29.679,60.433 29.721,60.347C29.755,60.276 29.779,60.2 29.791,60.122C29.804,60.035 29.803,59.945 29.787,59.858C29.745,59.621 29.593,59.412 29.381,59.297C29.276,59.239 29.16,59.209 29.041,59.201C29.021,59.2 29,59.2 28.979,59.2Z" style="fill:black;fill-rule:nonzero;"/>
            </g>
            <g transform="matrix(2.5,0,0,2.5,47.5,-138.5)">
                <path d="M29.031,58.8C29.082,58.802 29.132,58.806 29.182,58.814C29.309,58.833 29.432,58.873 29.546,58.931C29.778,59.05 29.968,59.245 30.081,59.48C30.133,59.586 30.168,59.701 30.186,59.818C30.205,59.938 30.205,60.062 30.186,60.182C30.168,60.299 30.133,60.414 30.081,60.52C30.019,60.65 29.932,60.769 29.828,60.868C29.723,60.968 29.6,61.049 29.467,61.106C29.32,61.168 29.16,61.2 29,61.2C28.84,61.2 28.68,61.168 28.533,61.106C28.4,61.049 28.277,60.968 28.172,60.868C28.068,60.769 27.981,60.65 27.919,60.52C27.867,60.414 27.832,60.299 27.814,60.182C27.795,60.062 27.795,59.938 27.814,59.818C27.832,59.701 27.867,59.586 27.919,59.48C28.032,59.245 28.222,59.05 28.454,58.931C28.568,58.873 28.691,58.833 28.818,58.814C28.868,58.806 28.918,58.802 28.969,58.8C29,58.8 29,58.8 29.031,58.8ZM28.979,59.2C28.86,59.205 28.743,59.233 28.636,59.287C28.416,59.4 28.256,59.614 28.213,59.858C28.197,59.945 28.196,60.035 28.209,60.122C28.221,60.2 28.245,60.276 28.279,60.347C28.321,60.433 28.378,60.512 28.448,60.579C28.518,60.646 28.6,60.7 28.689,60.737C28.787,60.779 28.893,60.8 29,60.8C29.107,60.8 29.213,60.779 29.311,60.737C29.4,60.7 29.482,60.646 29.552,60.579C29.622,60.512 29.679,60.433 29.721,60.347C29.755,60.276 29.779,60.2 29.791,60.122C29.804,60.035 29.803,59.945 29.787,59.858C29.745,59.621 29.593,59.412 29.381,59.297C29.276,59.239 29.16,59.209 29.041,59.201C29.021,59.2 29,59.2 28.979,59.2Z" style="fill:black;fill-rule:nonzero;"/>
            </g>
        </g>
    </g>
</svg>
