<?xml version="1.0" standalone="no"?>
<!DOCTYPE svg PUBLIC "-//W3C//DTD SVG 1.1//EN" "http://www.w3.org/Graphics/SVG/1.1/DTD/svg11.dtd">
<svg width="100%" height="100%" viewBox="0 0 16 16" version="1.1" xmlns="http://www.w3.org/2000/svg" xmlns:xlink="http://www.w3.org/1999/xlink" xml:space="preserve" style="fill-rule:evenodd;clip-rule:evenodd;stroke-linejoin:round;stroke-miterlimit:1.41421;">
    <g transform="matrix(1,0,0,1,-34,-139)">
        <g id="Polygon" transform="matrix(1,0,0,1,-112,139)">
            <g transform="matrix(1.05872,0,0,1.25128,109.387,-175.192)">
                <path d="M48.603,142.068L44.596,145.982L49.184,149.908L48.942,150.4L35.804,150.4L35.528,150.166L35.528,144.113L35.613,143.955L38.755,141.651L38.915,141.6L48.351,141.6C48.435,141.756 48.519,141.912 48.603,142.068ZM39.176,142.4L36.472,144.382L36.472,149.6L47.496,149.6L43.486,146.17L43.474,145.857L47.014,142.4C44.401,142.4 41.789,142.4 39.176,142.4Z" style="fill:black;fill-rule:nonzero;"/>
            </g>
        </g>
    </g>
</svg>
