<?xml version="1.0" standalone="no"?>
<!DOCTYPE svg PUBLIC "-//W3C//DTD SVG 1.1//EN" "http://www.w3.org/Graphics/SVG/1.1/DTD/svg11.dtd">
<svg width="100%" height="100%" viewBox="0 0 16 17" version="1.1" xmlns="http://www.w3.org/2000/svg" xmlns:xlink="http://www.w3.org/1999/xlink" xml:space="preserve" style="fill-rule:evenodd;clip-rule:evenodd;stroke-linejoin:round;stroke-miterlimit:1.41421;">
    <g transform="matrix(1,0,0,1,-75,-34)">
        <g id="Rectangle" transform="matrix(1,0,0,1,-33,34.4611)">
            <g transform="matrix(1.08333,8.36493e-19,6.45491e-19,0.833333,84.5833,-14.5)">
                <path d="M35.045,20.403C35.091,20.412 35.134,20.423 35.177,20.446C35.289,20.506 35.38,20.624 35.426,20.77C35.444,20.826 35.453,20.882 35.459,20.941C35.611,24.956 35.462,28.98 35.462,33C35.459,33.06 35.455,33.116 35.442,33.174C35.402,33.345 35.303,33.486 35.177,33.554C35.134,33.577 35.091,33.588 35.045,33.597C31.035,33.853 27.015,33.6 23,33.6C22.954,33.597 22.91,33.592 22.866,33.574C22.735,33.522 22.626,33.394 22.574,33.23C22.556,33.174 22.547,33.118 22.541,33.059C22.389,29.044 22.538,25.02 22.538,21C22.541,20.94 22.545,20.884 22.558,20.826C22.598,20.655 22.697,20.514 22.823,20.446C22.866,20.423 22.909,20.412 22.955,20.403C26.98,20.146 31.02,20.146 35.045,20.403ZM23.462,21.6L23.462,32.4L34.538,32.4L34.538,21.6C30.846,21.6 27.154,21.6 23.462,21.6Z" style="fill:black;fill-rule:nonzero;"/>
            </g>
        </g>
    </g>
</svg>
