<?xml version="1.0" standalone="no"?>
<!DOCTYPE svg PUBLIC "-//W3C//DTD SVG 1.1//EN" "http://www.w3.org/Graphics/SVG/1.1/DTD/svg11.dtd">
<svg width="100%" height="100%" viewBox="0 0 16 16" version="1.1" xmlns="http://www.w3.org/2000/svg" xmlns:xlink="http://www.w3.org/1999/xlink" xml:space="preserve" style="fill-rule:evenodd;clip-rule:evenodd;stroke-linejoin:round;stroke-miterlimit:1.41421;">
    <g transform="matrix(1,0,0,1,-34,-70)">
        <g id="Scalebar" transform="matrix(1,0,0,1,-74,70)">
            <g transform="matrix(0.828598,-2.67283e-18,-2.65597e-18,0.719166,105.356,-6.9504)">
                <path d="M9.934,26.576L11.242,20.372L10.222,20.372L9.502,23.804C9.446,24.06 9.352,24.31 9.22,24.554C9.088,24.798 8.926,25.014 8.734,25.202C8.542,25.39 8.324,25.54 8.08,25.652C7.836,25.764 7.57,25.82 7.282,25.82C6.978,25.82 6.722,25.75 6.514,25.61C6.306,25.47 6.202,25.252 6.202,24.956C6.202,24.9 6.206,24.83 6.214,24.746C6.222,24.662 6.234,24.574 6.25,24.482C6.266,24.39 6.282,24.3 6.298,24.212C6.314,24.124 6.33,24.052 6.346,23.996L7.138,20.372L6.118,20.372L4.342,28.94L5.35,28.94L5.914,26.264L5.938,26.264C6.002,26.36 6.134,26.458 6.334,26.558C6.534,26.658 6.774,26.708 7.054,26.708C7.406,26.708 7.774,26.618 8.158,26.438C8.542,26.258 8.862,25.992 9.118,25.64L9.142,25.64L8.95,26.576L9.934,26.576Z" style="fill:black;fill-rule:nonzero;"/>
                <path d="M12.934,20.372L11.626,26.576L12.634,26.576L13.33,23.324C13.394,23.02 13.466,22.762 13.546,22.55C13.626,22.338 13.774,22.128 13.99,21.92C14.174,21.712 14.404,21.528 14.68,21.368C14.956,21.208 15.234,21.128 15.514,21.128C15.794,21.128 16.008,21.2 16.156,21.344C16.304,21.488 16.378,21.688 16.378,21.944C16.378,22.016 16.36,22.156 16.324,22.364C16.288,22.572 16.242,22.796 16.186,23.036L15.442,26.576L16.462,26.576L17.146,23.372C17.202,23.108 17.27,22.856 17.35,22.616C17.43,22.376 17.554,22.164 17.722,21.98C17.81,21.868 17.914,21.76 18.034,21.656C18.154,21.552 18.282,21.462 18.418,21.386C18.554,21.31 18.696,21.248 18.844,21.2C18.992,21.152 19.138,21.128 19.282,21.128C19.554,21.128 19.78,21.208 19.96,21.368C20.14,21.528 20.23,21.728 20.23,21.968C20.23,22.056 20.22,22.166 20.2,22.298C20.18,22.43 20.158,22.544 20.134,22.64L19.27,26.576L20.29,26.576L21.07,22.856C21.11,22.68 21.15,22.476 21.19,22.244C21.23,22.012 21.25,21.804 21.25,21.62C21.25,21.364 21.202,21.148 21.106,20.972C21.01,20.796 20.88,20.654 20.716,20.546C20.552,20.438 20.366,20.358 20.158,20.306C19.95,20.254 19.738,20.228 19.522,20.228C19.106,20.228 18.708,20.33 18.328,20.534C17.948,20.738 17.638,21.008 17.398,21.344C17.31,20.936 17.126,20.648 16.846,20.48C16.566,20.312 16.23,20.228 15.838,20.228C15.406,20.228 15.004,20.326 14.632,20.522C14.26,20.718 13.942,20.984 13.678,21.32L13.654,21.296L13.882,20.372L12.934,20.372Z" style="fill:black;fill-rule:nonzero;"/>
            </g>
            <g transform="matrix(1.2,4.89859e-17,2.74254e-22,5.59863e-06,81.2,4.99971)">
                <path d="M34.057,-178158C34.191,-175205 34.317,-167680 34.433,-152572C34.514,-142004 34.587,-128458 34.646,-112682C34.854,-58078.6 34.891,19715.4 34.74,82214.8C34.696,100273 34.638,116697 34.569,130579C34.472,150030 34.353,164344 34.225,172032C34.169,175364 34.114,176981 34.057,178240C30.707,202774 27.352,178663 24,178666C23.949,178296 23.937,178480 23.887,177003C23.755,173122 23.628,162408 23.519,145975C23.235,102866 23.103,23843.9 23.198,-48138C23.223,-67722.2 23.264,-86336.2 23.319,-102952C23.385,-122898 23.47,-139876 23.567,-152561C23.683,-167670 23.809,-175195 23.943,-178148C27.312,-202821 30.688,-202824 34.057,-178158Z" style="fill:black;fill-rule:nonzero;"/>
            </g>
        </g>
    </g>
</svg>
