<?xml version="1.0" standalone="no"?>
<!DOCTYPE svg PUBLIC "-//W3C//DTD SVG 1.1//EN" "http://www.w3.org/Graphics/SVG/1.1/DTD/svg11.dtd">
<svg width="100%" height="100%" viewBox="0 0 16 16" version="1.1" xmlns="http://www.w3.org/2000/svg" xmlns:xlink="http://www.w3.org/1999/xlink" xml:space="preserve" style="fill-rule:evenodd;clip-rule:evenodd;stroke-linejoin:round;stroke-miterlimit:1.41421;">
    <g transform="matrix(1,0,0,1,-114,-35)">
        <g id="Screenshot" transform="matrix(1,0,0,1,6,35)">
            <g transform="matrix(1.16371,0,0,1.0943,-25.9722,-38.5954)">
                <path d="M118.999,39.95C118.994,39.621 118.994,39.291 119.001,38.961C119.007,38.856 119.025,38.753 119.062,38.654C119.158,38.394 119.362,38.182 119.617,38.076C119.727,38.031 119.842,38.008 119.961,38.001C121.32,37.974 122.68,37.974 124.039,38.001C124.144,38.007 124.247,38.025 124.346,38.062C124.606,38.158 124.818,38.362 124.924,38.617C124.969,38.727 124.992,38.842 124.999,38.961C125.006,39.291 125.006,39.621 125.001,39.95C125.688,39.963 126.376,39.98 127.063,40.002C127.168,40.012 127.269,40.031 127.368,40.07C127.623,40.171 127.829,40.377 127.93,40.632C127.969,40.731 127.988,40.832 127.998,40.937C128.062,42.957 128,44.979 128,47C127.997,47.106 127.984,47.208 127.951,47.309C127.86,47.59 127.643,47.821 127.368,47.93C127.269,47.969 127.168,47.988 127.063,47.998C123.71,48.103 120.354,48 117,48C116.894,47.997 116.792,47.984 116.691,47.951C116.41,47.86 116.179,47.643 116.07,47.368C116.031,47.269 116.012,47.168 116.002,47.063C115.938,45.043 116,43.021 116,41C116.003,40.894 116.016,40.792 116.049,40.691C116.14,40.41 116.357,40.179 116.632,40.07C116.731,40.031 116.832,40.012 116.937,40.002C117.624,39.98 118.312,39.963 118.999,39.95ZM122.071,41.251C122.483,41.266 122.885,41.362 123.253,41.551C123.548,41.701 123.814,41.905 124.037,42.15C124.246,42.379 124.415,42.643 124.536,42.928C124.643,43.179 124.711,43.446 124.739,43.718C124.77,44.019 124.751,44.324 124.683,44.619C124.492,45.447 123.909,46.155 123.135,46.505C122.801,46.656 122.439,46.739 122.073,46.748C121.705,46.757 121.336,46.693 120.993,46.558C120.203,46.247 119.587,45.57 119.354,44.753C119.278,44.486 119.243,44.207 119.25,43.93C119.257,43.654 119.305,43.38 119.393,43.119C119.493,42.824 119.644,42.547 119.836,42.302C120.054,42.025 120.325,41.791 120.63,41.615C120.987,41.41 121.381,41.294 121.789,41.258C121.883,41.252 121.977,41.25 122.071,41.251ZM121.968,42.75C121.781,42.758 121.598,42.801 121.431,42.887C121.116,43.048 120.877,43.344 120.788,43.688C120.751,43.831 120.74,43.981 120.755,44.128C120.768,44.251 120.799,44.372 120.847,44.485C120.906,44.624 120.991,44.752 121.095,44.861C121.199,44.97 121.323,45.06 121.459,45.126C121.608,45.198 121.771,45.239 121.937,45.247C122.094,45.255 122.254,45.234 122.403,45.183C122.861,45.028 123.198,44.608 123.247,44.127C123.262,43.98 123.251,43.83 123.214,43.687C123.176,43.54 123.111,43.401 123.023,43.277C122.929,43.146 122.811,43.033 122.675,42.947C122.519,42.847 122.344,42.786 122.161,42.76C122.097,42.753 122.033,42.75 121.968,42.75ZM126.058,40.5C126.136,40.504 126.211,40.522 126.279,40.559C126.493,40.673 126.596,40.933 126.517,41.163C126.498,41.217 126.47,41.268 126.434,41.313C126.395,41.362 126.346,41.403 126.292,41.434C126.229,41.47 126.159,41.491 126.087,41.498C125.712,41.525 125.333,41.525 124.958,41.498C124.881,41.49 124.807,41.467 124.741,41.427C124.534,41.301 124.447,41.035 124.539,40.81C124.56,40.757 124.592,40.707 124.63,40.665C124.672,40.618 124.723,40.58 124.779,40.552C124.844,40.52 124.914,40.503 124.987,40.5C125.344,40.495 125.701,40.495 126.058,40.5Z" style="fill:black;"/>
            </g>
        </g>
    </g>
</svg>
