<?xml version="1.0" standalone="no"?>
<!DOCTYPE svg PUBLIC "-//W3C//DTD SVG 1.1//EN" "http://www.w3.org/Graphics/SVG/1.1/DTD/svg11.dtd">
<svg width="100%" height="100%" viewBox="0 0 16 16" version="1.1" xmlns="http://www.w3.org/2000/svg" xmlns:xlink="http://www.w3.org/1999/xlink" xml:space="preserve" style="fill-rule:evenodd;clip-rule:evenodd;stroke-linejoin:round;stroke-miterlimit:1.41421;">
    <g transform="matrix(1,0,0,1,-34,-169)">
        <g id="Table" transform="matrix(1,0,0,1,-112,169)">
            <g transform="matrix(1,0,0,1,112,-169)">
                <path d="M46.977,170.001C47.203,170.009 47.424,170.048 47.637,170.126C48.19,170.329 48.64,170.768 48.856,171.315C48.945,171.542 48.99,171.78 48.999,172.023C49.041,175.341 49.041,178.659 48.999,181.977C48.991,182.203 48.952,182.424 48.874,182.637C48.671,183.19 48.232,183.64 47.685,183.856C47.458,183.945 47.22,183.99 46.977,183.999C43.659,184.041 40.341,184.041 37.023,183.999C36.78,183.99 36.542,183.945 36.315,183.856C35.768,183.64 35.329,183.19 35.126,182.637C35.048,182.424 35.009,182.203 35.001,181.977C34.959,178.659 34.959,175.341 35.001,172.023C35.01,171.78 35.055,171.542 35.144,171.315C35.36,170.768 35.81,170.329 36.363,170.126C36.576,170.048 36.797,170.009 37.023,170.001C40.341,169.958 43.659,169.958 46.977,170.001ZM43.936,181C43.29,181 42.645,181.001 41.999,181.001C41.34,181.001 40.68,181.001 40.02,181.002C40.011,181.694 40.003,182.386 40.001,183.078C41.328,183.099 42.656,183.099 43.983,183.078C43.957,182.386 43.943,181.693 43.936,181ZM45.02,181C45.011,181.686 45.003,182.373 45.001,183.059C45.66,183.044 46.32,183.024 46.979,182.999C47.086,182.992 47.192,182.972 47.293,182.935C47.58,182.83 47.813,182.601 47.925,182.318C47.968,182.209 47.991,182.095 47.999,181.979C48.011,181.653 48.022,181.328 48.032,181.002C48.001,181.002 47.97,181.002 47.94,181.002C47.449,181.001 46.958,181 46.468,181C45.985,181 45.503,181 45.02,181ZM38.936,181.002C37.947,181.003 36.959,181.004 35.97,181.004C35.979,181.329 35.989,181.654 36.001,181.979C36.009,182.095 36.032,182.209 36.075,182.318C36.187,182.601 36.42,182.83 36.707,182.935C36.808,182.972 36.914,182.992 37.021,182.999C37.674,183.024 38.328,183.044 38.982,183.059C38.957,182.373 38.943,181.688 38.936,181.002ZM38.958,177.002C37.952,177.003 36.945,177.004 35.938,177.004C35.932,178.004 35.933,179.005 35.949,180.004C36.943,180.004 37.937,180.003 38.931,180.002C38.931,179.003 38.944,178.003 38.958,177.002ZM43.958,177C43.305,177 42.652,177.001 41.999,177.001C41.356,177.001 40.712,177.001 40.068,177.002C40.064,178.002 40.049,179.002 40.034,180.002C41.333,180.001 42.632,180.001 43.931,180C43.931,179 43.944,178 43.958,177ZM45.068,177C45.064,178 45.049,179 45.034,180C45.512,180 45.99,180 46.468,180C46.998,180.001 47.529,180 48.059,180.002C48.082,179.002 48.093,178.002 48.093,177.003C48.042,177.002 47.991,177.002 47.94,177.002C47.449,177.001 46.958,177 46.468,177C46.001,177 45.534,177 45.068,177ZM39,172.991L35.988,172.993C35.973,173.996 35.957,175 35.947,176.004C36.955,176.004 37.964,176.003 38.973,176.002C38.987,175.001 39,174.001 39,173C39,172.997 39,172.994 39,172.991ZM44.001,172.988L40,172.99C40.044,173.994 40.063,174.998 40.068,176.002C41.369,176.001 42.671,176.001 43.973,176C43.987,175 44,174 44,173C44,172.996 44,172.992 44.001,172.988ZM44.999,172.988C45.044,173.991 45.063,174.996 45.068,176C45.534,176 46.001,176 46.468,176C47.008,176.001 47.549,176 48.089,176.002C48.082,174.996 48.063,173.991 48.032,172.986L44.999,172.988Z" style="fill:black;"/>
            </g>
        </g>
    </g>
</svg>
