<?xml version="1.0" standalone="no"?>
<!DOCTYPE svg PUBLIC "-//W3C//DTD SVG 1.1//EN" "http://www.w3.org/Graphics/SVG/1.1/DTD/svg11.dtd">
<svg width="100%" height="100%" viewBox="0 0 16 16" version="1.1" xmlns="http://www.w3.org/2000/svg" xmlns:xlink="http://www.w3.org/1999/xlink" xml:space="preserve" style="fill-rule:evenodd;clip-rule:evenodd;stroke-linejoin:round;stroke-miterlimit:1.41421;">
    <g transform="matrix(1,0,0,1,-0,-105)">
        <g id="TMA_grid" transform="matrix(1,0,0,1,-146,105)">
            <g transform="matrix(2.5,0,0,2.5,77.5,-138)">
                <path d="M29.031,58.8C29.082,58.802 29.132,58.806 29.182,58.814C29.309,58.833 29.432,58.873 29.546,58.931C29.778,59.05 29.968,59.245 30.081,59.48C30.133,59.586 30.168,59.701 30.186,59.818C30.205,59.938 30.205,60.062 30.186,60.182C30.168,60.299 30.133,60.414 30.081,60.52C30.019,60.65 29.932,60.769 29.828,60.868C29.723,60.968 29.6,61.049 29.467,61.106C29.32,61.168 29.16,61.2 29,61.2C28.84,61.2 28.68,61.168 28.533,61.106C28.4,61.049 28.277,60.968 28.172,60.868C28.068,60.769 27.981,60.65 27.919,60.52C27.867,60.414 27.832,60.299 27.814,60.182C27.795,60.062 27.795,59.938 27.814,59.818C27.832,59.701 27.867,59.586 27.919,59.48C28.032,59.245 28.222,59.05 28.454,58.931C28.568,58.873 28.691,58.833 28.818,58.814C28.868,58.806 28.918,58.802 28.969,58.8C29,58.8 29,58.8 29.031,58.8ZM28.979,59.2C28.86,59.205 28.743,59.233 28.636,59.287C28.416,59.4 28.256,59.614 28.213,59.858C28.197,59.945 28.196,60.035 28.209,60.122C28.221,60.2 28.245,60.276 28.279,60.347C28.321,60.433 28.378,60.512 28.448,60.579C28.518,60.646 28.6,60.7 28.689,60.737C28.787,60.779 28.893,60.8 29,60.8C29.107,60.8 29.213,60.779 29.311,60.737C29.4,60.7 29.482,60.646 29.552,60.579C29.622,60.512 29.679,60.433 29.721,60.347C29.755,60.276 29.779,60.2 29.791,60.122C29.804,60.035 29.803,59.945 29.787,59.858C29.745,59.621 29.593,59.412 29.381,59.297C29.276,59.239 29.16,59.209 29.041,59.201C29.021,59.2 29,59.2 28.979,59.2Z" style="fill:black;fill-rule:nonzero;"/>
            </g>
            <g transform="matrix(2.5,0,0,2.5,85.5,-138)">
                <path d="M29.031,58.8C29.082,58.802 29.132,58.806 29.182,58.814C29.309,58.833 29.432,58.873 29.546,58.931C29.778,59.05 29.968,59.245 30.081,59.48C30.133,59.586 30.168,59.701 30.186,59.818C30.205,59.938 30.205,60.062 30.186,60.182C30.168,60.299 30.133,60.414 30.081,60.52C30.019,60.65 29.932,60.769 29.828,60.868C29.723,60.968 29.6,61.049 29.467,61.106C29.32,61.168 29.16,61.2 29,61.2C28.84,61.2 28.68,61.168 28.533,61.106C28.4,61.049 28.277,60.968 28.172,60.868C28.068,60.769 27.981,60.65 27.919,60.52C27.867,60.414 27.832,60.299 27.814,60.182C27.795,60.062 27.795,59.938 27.814,59.818C27.832,59.701 27.867,59.586 27.919,59.48C28.032,59.245 28.222,59.05 28.454,58.931C28.568,58.873 28.691,58.833 28.818,58.814C28.868,58.806 28.918,58.802 28.969,58.8C29,58.8 29,58.8 29.031,58.8ZM28.979,59.2C28.86,59.205 28.743,59.233 28.636,59.287C28.416,59.4 28.256,59.614 28.213,59.858C28.197,59.945 28.196,60.035 28.209,60.122C28.221,60.2 28.245,60.276 28.279,60.347C28.321,60.433 28.378,60.512 28.448,60.579C28.518,60.646 28.6,60.7 28.689,60.737C28.787,60.779 28.893,60.8 29,60.8C29.107,60.8 29.213,60.779 29.311,60.737C29.4,60.7 29.482,60.646 29.552,60.579C29.622,60.512 29.679,60.433 29.721,60.347C29.755,60.276 29.779,60.2 29.791,60.122C29.804,60.035 29.803,59.945 29.787,59.858C29.745,59.621 29.593,59.412 29.381,59.297C29.276,59.239 29.16,59.209 29.041,59.201C29.021,59.2 29,59.2 28.979,59.2Z" style="fill:black;fill-rule:nonzero;"/>
            </g>
            <g transform="matrix(2.5,0,0,2.5,77.5,-146)">
                <path d="M29.031,58.8C29.082,58.802 29.132,58.806 29.182,58.814C29.309,58.833 29.432,58.873 29.546,58.931C29.778,59.05 29.968,59.245 30.081,59.48C30.133,59.586 30.168,59.701 30.186,59.818C30.205,59.938 30.205,60.062 30.186,60.182C30.168,60.299 30.133,60.414 30.081,60.52C30.019,60.65 29.932,60.769 29.828,60.868C29.723,60.968 29.6,61.049 29.467,61.106C29.32,61.168 29.16,61.2 29,61.2C28.84,61.2 28.68,61.168 28.533,61.106C28.4,61.049 28.277,60.968 28.172,60.868C28.068,60.769 27.981,60.65 27.919,60.52C27.867,60.414 27.832,60.299 27.814,60.182C27.795,60.062 27.795,59.938 27.814,59.818C27.832,59.701 27.867,59.586 27.919,59.48C28.032,59.245 28.222,59.05 28.454,58.931C28.568,58.873 28.691,58.833 28.818,58.814C28.868,58.806 28.918,58.802 28.969,58.8C29,58.8 29,58.8 29.031,58.8ZM28.979,59.2C28.86,59.205 28.743,59.233 28.636,59.287C28.422,59.397 28.265,59.603 28.216,59.839C28.199,59.925 28.195,60.015 28.206,60.102C28.216,60.18 28.238,60.257 28.271,60.329C28.31,60.417 28.366,60.497 28.434,60.566C28.503,60.634 28.583,60.69 28.671,60.729C28.768,60.773 28.873,60.797 28.979,60.8C29.086,60.802 29.194,60.784 29.293,60.745C29.383,60.709 29.466,60.657 29.538,60.592C29.609,60.527 29.669,60.45 29.713,60.364C29.748,60.294 29.774,60.219 29.787,60.142C29.803,60.055 29.804,59.965 29.791,59.878C29.753,59.633 29.599,59.415 29.381,59.297C29.276,59.239 29.16,59.209 29.041,59.201C29.021,59.2 29,59.2 28.979,59.2Z" style="fill:black;fill-rule:nonzero;"/>
            </g>
            <g transform="matrix(2.5,0,0,2.5,85.5,-146)">
                <path d="M29.031,58.8C29.082,58.802 29.132,58.806 29.182,58.814C29.309,58.833 29.432,58.873 29.546,58.931C29.778,59.05 29.968,59.245 30.081,59.48C30.133,59.586 30.168,59.701 30.186,59.818C30.205,59.938 30.205,60.062 30.186,60.182C30.168,60.299 30.133,60.414 30.081,60.52C30.019,60.65 29.932,60.769 29.828,60.868C29.723,60.968 29.6,61.049 29.467,61.106C29.32,61.168 29.16,61.2 29,61.2C28.84,61.2 28.68,61.168 28.533,61.106C28.4,61.049 28.277,60.968 28.172,60.868C28.068,60.769 27.981,60.65 27.919,60.52C27.867,60.414 27.832,60.299 27.814,60.182C27.795,60.062 27.795,59.938 27.814,59.818C27.832,59.701 27.867,59.586 27.919,59.48C28.032,59.245 28.222,59.05 28.454,58.931C28.568,58.873 28.691,58.833 28.818,58.814C28.868,58.806 28.918,58.802 28.969,58.8C29,58.8 29,58.8 29.031,58.8ZM28.979,59.2C28.86,59.205 28.743,59.233 28.636,59.287C28.422,59.397 28.265,59.603 28.216,59.839C28.199,59.925 28.195,60.015 28.206,60.102C28.216,60.18 28.238,60.257 28.271,60.329C28.31,60.417 28.366,60.497 28.434,60.566C28.503,60.634 28.583,60.69 28.671,60.729C28.768,60.773 28.873,60.797 28.979,60.8C29.086,60.802 29.194,60.784 29.293,60.745C29.383,60.709 29.466,60.657 29.538,60.592C29.609,60.527 29.669,60.45 29.713,60.364C29.748,60.294 29.774,60.219 29.787,60.142C29.803,60.055 29.804,59.965 29.791,59.878C29.753,59.633 29.599,59.415 29.381,59.297C29.276,59.239 29.16,59.209 29.041,59.201C29.021,59.2 29,59.2 28.979,59.2Z" style="fill:black;fill-rule:nonzero;"/>
            </g>
            <g transform="matrix(1,0,0,0.714286,146.125,-72.6429)">
                <path d="M4.033,110.802C4.085,110.808 4.135,110.822 4.184,110.849C4.361,110.947 4.477,111.176 4.498,111.438C4.555,112.643 4.555,113.857 4.498,115.062C4.489,115.176 4.464,115.284 4.42,115.381C4.296,115.648 4.052,115.765 3.837,115.662C3.781,115.635 3.729,115.594 3.683,115.542C3.632,115.483 3.589,115.41 3.558,115.327C3.523,115.235 3.505,115.135 3.5,115.031C3.482,113.834 3.445,112.633 3.502,111.438C3.523,111.176 3.639,110.947 3.816,110.849C3.865,110.822 3.915,110.808 3.967,110.802C3.989,110.8 4.011,110.8 4.033,110.802Z" style="fill:black;fill-rule:nonzero;"/>
            </g>
            <g transform="matrix(1,0,0,1,146,-105)">
                <path d="M9.02,108.5C9.1,108.505 9.177,108.526 9.247,108.565C9.455,108.683 9.551,108.941 9.472,109.166C9.452,109.222 9.422,109.275 9.384,109.321C9.341,109.371 9.289,109.414 9.23,109.444C9.164,109.478 9.093,109.495 9.02,109.5C8.334,109.513 7.645,109.539 6.96,109.498C6.88,109.49 6.804,109.467 6.736,109.425C6.545,109.306 6.456,109.067 6.522,108.853C6.54,108.796 6.567,108.742 6.604,108.695C6.644,108.642 6.695,108.598 6.753,108.565C6.817,108.529 6.887,108.509 6.96,108.502C7.645,108.461 8.334,108.487 9.02,108.5Z" style="fill:black;fill-rule:nonzero;"/>
            </g>
            <g transform="matrix(1,0,0,1,146,-105.5)">
                <path d="M9.02,117C9.093,117.005 9.164,117.022 9.23,117.056C9.289,117.086 9.341,117.129 9.384,117.179C9.422,117.225 9.452,117.278 9.472,117.334C9.551,117.56 9.455,117.817 9.247,117.935C9.177,117.975 9.1,117.995 9.02,118C8.334,118.013 7.645,118.039 6.96,117.998C6.887,117.991 6.817,117.971 6.753,117.935C6.695,117.902 6.644,117.858 6.604,117.805C6.567,117.758 6.54,117.704 6.522,117.647C6.456,117.433 6.545,117.194 6.736,117.076C6.804,117.033 6.88,117.01 6.96,117.002C7.645,116.961 8.334,116.987 9.02,117Z" style="fill:black;fill-rule:nonzero;"/>
            </g>
            <g transform="matrix(1,0,0,0.833326,146.125,-86.3324)">
                <path d="M12.033,111.401C12.085,111.407 12.135,111.419 12.184,111.442C12.361,111.526 12.477,111.722 12.498,111.947C12.555,112.98 12.555,114.02 12.498,115.053C12.49,115.142 12.469,115.227 12.431,115.304C12.398,115.373 12.352,115.433 12.299,115.481C12.252,115.523 12.198,115.555 12.142,115.575C11.924,115.653 11.684,115.539 11.569,115.304C11.527,115.219 11.506,115.125 11.5,115.027C11.482,114 11.445,112.971 11.502,111.947C11.508,111.885 11.519,111.825 11.539,111.767C11.613,111.557 11.779,111.421 11.967,111.401C11.989,111.4 12.011,111.4 12.033,111.401Z" style="fill:black;fill-rule:nonzero;"/>
            </g>
        </g>
    </g>
</svg>
