<?xml version="1.0" standalone="no"?>
<!DOCTYPE svg PUBLIC "-//W3C//DTD SVG 1.1//EN" "http://www.w3.org/Graphics/SVG/1.1/DTD/svg11.dtd">
<svg width="100%" height="100%" viewBox="0 0 16 16" version="1.1" xmlns="http://www.w3.org/2000/svg" xmlns:xlink="http://www.w3.org/1999/xlink" xml:space="preserve" style="fill-rule:evenodd;clip-rule:evenodd;stroke-linejoin:round;stroke-miterlimit:1.41421;">
    <g transform="matrix(1,0,0,1,-75,-139)">
        <g id="Wand" transform="matrix(1,0,0,1,-71,139)">
            <g transform="matrix(0.702921,-0.711268,0.585098,0.578231,12.1142,-15.5426)">
                <path d="M84.5,146L84,146.608L82,146.608L81.5,146L81.5,140L82,139.392L84,139.392L84.5,140C84.5,142 84.5,144 84.5,146ZM82.5,140.608L82.5,145.392L83.5,145.392L83.5,140.608C83.167,140.608 82.833,140.608 82.5,140.608Z" style="fill:black;fill-rule:nonzero;"/>
            </g>
            <g transform="matrix(1.05438,-1.0669,0.276247,0.273005,29.6549,60.1387)">
                <rect x="82" y="140" width="2" height="14" style="fill:black;"/>
            </g>
            <g transform="matrix(0.907305,-0.441546,0.423086,0.869372,16.9361,-82.8248)">
                <path d="M79.233,143.543C79.3,143.582 79.358,143.634 79.403,143.699C79.439,143.752 79.466,143.812 79.481,143.875C79.494,143.931 79.498,143.989 79.493,144.047C79.472,144.291 79.282,144.491 79.048,144.515C78.972,144.523 78.896,144.51 78.824,144.483C78.113,144.184 77.418,143.836 76.749,143.446C76.684,143.404 76.628,143.351 76.585,143.283C76.457,143.078 76.487,142.798 76.656,142.628C76.696,142.588 76.742,142.555 76.792,142.531C76.849,142.503 76.91,142.487 76.972,142.484C77.049,142.479 77.124,142.495 77.195,142.525C77.881,142.849 78.56,143.189 79.233,143.543Z" style="fill:black;fill-rule:nonzero;"/>
            </g>
            <g transform="matrix(0.712026,-0.346512,0.668515,1.37369,-2.27315,-165.06)">
                <path d="M77.293,142.71C77.331,142.721 77.366,142.733 77.4,142.747C78.13,143.07 78.825,143.417 79.474,143.784C79.535,143.821 79.582,143.864 79.608,143.912C79.629,143.95 79.636,143.991 79.629,144.031C79.621,144.071 79.6,144.11 79.565,144.146C79.436,144.281 79.135,144.354 78.852,144.318C78.75,144.305 78.66,144.28 78.581,144.245C77.882,143.909 77.169,143.58 76.526,143.216C76.465,143.179 76.418,143.136 76.392,143.088C76.371,143.05 76.364,143.009 76.371,142.969C76.399,142.819 76.629,142.695 76.918,142.675C77.022,142.668 77.124,142.676 77.222,142.694C77.246,142.699 77.269,142.704 77.293,142.71Z" style="fill:black;fill-rule:nonzero;"/>
            </g>
            <g transform="matrix(0.723365,0.322173,-0.621557,1.39556,183.942,-222.317)">
                <path d="M76.777,142.694C77.001,142.653 77.239,142.676 77.42,142.755C78.118,143.091 78.83,143.42 79.474,143.783C79.534,143.821 79.581,143.863 79.607,143.91C79.63,143.952 79.637,143.997 79.627,144.04C79.617,144.079 79.594,144.118 79.558,144.153C79.425,144.284 79.126,144.354 78.848,144.318C78.748,144.305 78.658,144.279 78.58,144.245C77.882,143.909 77.17,143.58 76.526,143.217C76.477,143.186 76.436,143.153 76.409,143.115C76.33,143.007 76.37,142.882 76.512,142.792C76.566,142.758 76.633,142.731 76.708,142.71C76.731,142.704 76.754,142.699 76.777,142.694Z" style="fill:black;fill-rule:nonzero;"/>
            </g>
            <g transform="matrix(0.426784,0.910913,-0.871027,0.408096,245.181,-127.107)">
                <path d="M76.556,142.766C76.582,142.714 76.614,142.667 76.654,142.626C76.799,142.48 77.011,142.444 77.195,142.522C77.887,142.85 78.588,143.165 79.251,143.551C79.317,143.594 79.373,143.647 79.416,143.715C79.45,143.77 79.474,143.831 79.487,143.895C79.498,143.952 79.5,144.011 79.493,144.068C79.462,144.313 79.263,144.505 79.028,144.519C78.951,144.524 78.876,144.508 78.805,144.478C78.113,144.15 77.412,143.835 76.749,143.449C76.707,143.422 76.669,143.391 76.636,143.353C76.514,143.216 76.476,143.025 76.525,142.847C76.534,142.819 76.544,142.792 76.556,142.766Z" style="fill:black;fill-rule:nonzero;"/>
            </g>
        </g>
    </g>
</svg>
