<?xml version="1.0" standalone="no"?>
<!DOCTYPE svg PUBLIC "-//W3C//DTD SVG 1.1//EN" "http://www.w3.org/Graphics/SVG/1.1/DTD/svg11.dtd">
<svg width="100%" height="100%" viewBox="0 0 16 17" version="1.1" xmlns="http://www.w3.org/2000/svg" xmlns:xlink="http://www.w3.org/1999/xlink" xml:space="preserve" style="fill-rule:evenodd;clip-rule:evenodd;stroke-linejoin:round;stroke-miterlimit:1.41421;">
    <g transform="matrix(1,0,0,1,-152,-139)">
        <g id="Zoom_in" transform="matrix(1,0,0,1,6,139.019)">
            <g transform="matrix(2,0,0,2,-164.5,-282.5)">
                <path d="M158.535,141.75C158.664,141.753 158.791,141.762 158.918,141.782C159.186,141.823 159.448,141.904 159.692,142.021C160.03,142.184 160.333,142.417 160.579,142.701C160.753,142.901 160.897,143.127 161.007,143.368C161.254,143.914 161.314,144.537 161.18,145.121C161.124,145.361 161.036,145.594 160.918,145.811C160.781,146.062 160.604,146.293 160.397,146.49C160.157,146.719 159.876,146.904 159.57,147.034C159.243,147.172 158.89,147.245 158.535,147.25C158.191,147.254 157.846,147.194 157.523,147.071C157.223,146.957 156.943,146.789 156.701,146.579C156.484,146.392 156.297,146.17 156.149,145.926C156.015,145.706 155.913,145.468 155.845,145.22C155.686,144.63 155.728,143.992 155.966,143.43C156.07,143.185 156.209,142.956 156.378,142.751C156.617,142.462 156.915,142.222 157.248,142.051C157.604,141.869 157.995,141.77 158.394,141.752C158.441,141.751 158.488,141.75 158.535,141.75ZM158.471,142.25C158.143,142.256 157.821,142.329 157.525,142.472C157.248,142.605 157,142.796 156.799,143.028C156.657,143.192 156.538,143.377 156.449,143.575C156.247,144.021 156.197,144.531 156.308,145.008C156.353,145.205 156.425,145.395 156.522,145.572C156.634,145.778 156.778,145.966 156.948,146.128C157.145,146.316 157.375,146.467 157.625,146.573C157.892,146.686 158.181,146.746 158.471,146.75C158.753,146.753 159.035,146.704 159.299,146.604C159.545,146.51 159.773,146.373 159.972,146.201C160.149,146.048 160.302,145.866 160.424,145.666C160.548,145.463 160.639,145.24 160.692,145.008C160.794,144.569 160.763,144.095 160.594,143.676C160.513,143.474 160.405,143.283 160.27,143.111C160.08,142.87 159.842,142.668 159.572,142.522C159.277,142.361 158.951,142.272 158.616,142.253C158.568,142.251 158.519,142.25 158.471,142.25Z" style="fill:black;fill-rule:nonzero;"/>
            </g>
            <g transform="matrix(0.666667,-7.89585e-19,-7.89585e-19,0.928159,48,-126.627)">
                <path d="M169.702,150.943L166.298,153.057L160.298,148.076L163.702,145.962C165.702,147.622 167.702,149.282 169.702,150.943Z" style="fill:black;fill-rule:nonzero;"/>
            </g>
            <g transform="matrix(1,0,0,1,-8,-139.019)">
                <rect x="160" y="143" width="1" height="5" style="fill:black;fill-rule:nonzero;"/>
            </g>
            <g transform="matrix(1,0,0,1,-8,-139.019)">
                <rect x="158" y="145.019" width="5" height="1" style="fill:black;fill-rule:nonzero;"/>
            </g>
        </g>
    </g>
</svg>
